<svg width="496" height="397" viewBox="0 0 496 397" fill="none" xmlns="http://www.w3.org/2000/svg">
<path d="M185.181 268.097C185.142 269.049 185.104 270.001 185.066 270.953C184.724 271.753 185.066 272.629 184.8 273.429C184.762 274.495 184.724 275.6 184.685 276.666C184.381 277.352 184.647 278.076 184.419 278.761C184.114 285.312 181.41 291.101 178.82 296.929C171.888 312.316 164.956 327.703 158.062 343.129C154.368 351.394 150.673 359.659 146.979 367.924C146.293 368.609 145.455 368.457 144.656 368.457C135.058 368.457 125.498 368.457 115.9 368.457C115.1 368.457 114.224 368.571 113.576 367.924C115.557 363.467 117.576 359.011 119.556 354.555C121.651 349.832 123.708 345.071 125.802 340.31C126.183 339.396 126.526 338.482 126.907 337.606C127.059 337.301 127.059 336.959 127.135 336.616C127.326 335.854 127.745 335.168 127.973 334.407C132.353 324.085 136.924 313.84 141.342 303.518C141.685 302.794 141.913 302.033 142.256 301.309C144.656 295.862 146.979 290.378 149.417 284.969C150.445 282.684 150.331 280.247 150.559 277.885C151.169 271.525 151.664 265.164 152.235 258.803C152.616 254.728 152.883 250.615 153.34 246.539C153.378 246.082 153.34 245.663 153.378 245.206C153.835 241.093 154.101 236.979 154.52 232.866C154.52 232.409 154.558 231.952 154.596 231.495C155.092 226.391 155.511 221.326 155.968 216.222C156.387 211.461 156.844 206.662 157.224 201.901C157.301 201.101 157.453 200.263 158.024 199.616C159.662 199.197 161.3 199.387 162.938 199.501C174.364 200.339 185.828 201.063 197.254 201.787C200.606 202.015 203.958 202.244 207.309 202.472C208.185 202.32 208.719 202.853 209.252 203.424C210.585 204.872 212.07 206.167 213.365 207.614C214.241 208.604 215.079 208.795 216.107 207.843C216.603 207.347 217.212 206.967 217.974 207.005C219.002 207.424 219.954 207.957 220.297 209.176C219.573 210.166 218.431 210.661 217.593 211.499C216.107 212.946 215.727 214.241 216.641 215.27C217.479 216.222 218.735 216.069 220.373 214.889C221.516 214.051 222.354 212.718 223.915 212.489C224.22 212.642 224.372 212.87 224.487 213.175C226.01 221.478 227.077 229.819 228.295 238.16C230.314 251.529 232.218 264.897 234.237 278.228C235.075 283.865 233.894 289.159 232.295 294.491C225.934 315.706 219.726 336.92 213.441 358.135C212.603 360.915 211.842 363.734 210.928 366.514C210.661 367.276 210.547 368.152 209.747 368.609C209.023 368.914 208.261 368.914 207.5 368.914C197.445 368.99 187.39 368.8 177.296 368.99C177.03 368.99 176.801 368.952 176.535 368.876C176.573 365.829 177.906 363.125 178.63 360.268C179.696 355.964 180.991 351.698 182.21 347.433C183.619 342.443 185.104 337.492 186.514 332.54C188.266 326.485 189.98 320.429 191.732 314.373C193.103 309.612 194.588 304.851 195.959 300.052C197.368 295.139 198.816 290.264 200.073 285.312C200.644 283.027 199.73 280.704 199.578 278.38C199.387 275.752 198.93 273.162 198.625 270.534C198.321 267.944 198.016 265.354 197.711 262.803C197.407 260.251 197.102 257.699 196.721 255.147C196.34 252.443 195.883 249.777 195.54 247.073C195.236 244.559 195.045 242.045 194.779 239.531C194.474 236.941 194.169 234.389 193.826 231.8C193.522 229.438 192.988 227.077 192.912 224.677C192.874 223.344 192.379 222.163 192.379 220.83C192.379 219.726 190.97 219.612 189.98 219.688C189.18 219.726 188.037 219.65 188.494 221.135C188.151 221.935 188.494 222.811 188.228 223.611C188.189 224.563 188.151 225.515 188.113 226.467C187.77 227.267 188.113 228.143 187.847 228.943C187.809 229.895 187.77 230.847 187.732 231.8C187.39 232.599 187.732 233.475 187.466 234.275C187.428 235.342 187.39 236.446 187.352 237.513C187.009 238.312 187.352 239.188 187.085 239.988C187.047 240.94 187.009 241.893 186.971 242.845C186.628 243.645 186.971 244.521 186.704 245.321C186.666 246.387 186.628 247.491 186.59 248.558C186.247 249.358 186.59 250.234 186.323 251.034C186.285 252.1 186.247 253.205 186.209 254.271C185.866 255.071 186.209 255.947 185.942 256.747C185.904 257.813 185.866 258.918 185.828 259.984C185.485 260.784 185.828 261.66 185.561 262.46C185.523 263.526 185.485 264.631 185.447 265.697C185.104 266.459 185.447 267.297 185.181 268.097Z" fill="#2F2E41"/>
<path d="M276.133 120.356C277.542 116.776 280.551 114.719 283.636 112.815C289.083 109.425 295.1 109.082 301.271 109.349C301.499 109.692 301.461 110.072 301.461 110.453C301.461 118.223 301.461 125.993 301.461 133.763C301.461 134.144 301.537 134.525 301.271 134.867C297.728 134.982 296.281 136.505 296.281 140.009C296.281 141.037 296.243 142.028 296.319 143.056C296.472 145.113 297.614 146.255 299.747 146.712C301.423 147.017 303.137 146.979 304.813 146.712C306.298 146.408 307.022 145.075 308.203 144.351C308.812 144.96 308.774 145.722 308.774 146.484C308.812 150.94 308.812 155.358 308.774 159.815C308.774 161.033 308.66 162.214 308.05 163.319C306.07 164.614 303.899 163.928 301.804 163.814C298.414 163.661 295.024 163.319 291.635 163.395C293.12 163.738 294.682 163.699 296.205 163.814C299.595 164.042 303.023 164.423 306.412 164.385C307.174 164.385 307.936 164.385 308.583 163.89C312.506 163.509 316.391 164.004 320.238 164.499C321.609 164.69 321.343 165.794 321.266 166.746C320.238 172.498 319.134 178.211 318.143 183.962C318.029 184.724 317.915 185.485 317.343 186.057C315.134 186.857 312.811 186.361 310.564 186.438C308.088 186.514 308.012 186.476 307.707 188.875C305.879 203.044 304.127 217.174 302.299 231.342C300.204 247.834 298.109 264.288 296.015 280.78C294.148 295.291 292.32 309.84 290.492 324.352C290.416 324.923 290.34 325.494 290.225 326.028C289.997 327.627 289.083 328.046 287.559 327.932C282.075 327.513 276.59 326.827 271.067 326.675C268.592 326.142 266.078 326.332 263.602 325.799C261.888 325.875 260.212 325.456 258.537 325.38C258.232 325.38 257.889 325.38 257.584 325.38C257.28 325.38 256.937 325.38 256.632 325.342C254.956 324.999 253.243 325.113 251.529 324.885C249.472 324.618 249.129 324.161 249.586 322.105C251.3 314.411 253.166 306.717 254.918 299.024C255.185 297.767 255.033 296.51 255.452 295.291C255.413 294.682 256.099 295.71 256.137 294.986C256.251 292.32 257.127 289.768 257.737 287.178C258.422 284.284 259.032 281.389 259.336 278.456C259.87 278.342 259.87 277.961 259.984 277.542C264.859 256.404 269.734 235.265 274.724 214.127C275.067 212.946 275.257 211.728 275.524 210.547C277.276 203.044 279.066 195.54 280.665 187.961C281.161 185.562 280.932 185.295 278.532 185.257C277.695 185.257 276.895 185.257 276.057 185.257C275.752 185.257 275.447 185.257 275.143 185.257C272.4 185.295 269.696 185.295 267.03 184.533C263.221 183.429 260.022 181.334 257.508 178.249C257.166 177.792 256.861 177.259 256.518 176.801C255.413 175.24 254.804 173.412 254.157 171.622C252.633 165.528 254.69 160.005 256.747 154.482C258.156 150.712 260.479 147.436 262.536 144.046C266.687 138.143 270.001 131.744 273.238 125.346C273.772 124.317 274.229 123.289 274.762 122.299C275.067 121.575 275.295 120.737 276.133 120.356Z" fill="#6842C2"/>
<path d="M270.839 326.294C273.238 325.685 275.6 326.446 277.961 326.561C281.389 326.713 284.779 327.094 288.169 327.475C289.197 327.589 289.426 327.208 289.54 326.294C290.721 316.696 291.977 307.06 293.234 297.462C294.986 283.827 296.738 270.191 298.452 256.556C300.014 244.178 301.575 231.799 303.137 219.421C304.508 208.566 305.917 197.673 307.288 186.818C307.403 185.942 307.707 185.676 308.622 185.714C311.478 185.828 314.335 185.828 317.191 185.866C317.762 185.409 318.448 185.371 319.172 185.409C325.304 185.676 331.398 186.019 337.53 186.057C339.51 186.057 341.567 185.98 343.395 187.047C344.614 192.455 345.795 197.864 347.014 203.272C348.88 211.575 350.784 219.916 352.689 228.219C352.803 228.714 352.993 229.171 353.146 229.667C353.565 229.971 353.869 230.39 353.984 230.923C355.583 238.122 357.373 245.282 358.897 252.481C358.935 252.9 359.011 253.281 358.821 253.7C359.011 255.414 359.43 257.051 359.925 258.689C360.535 259.26 360.496 260.098 360.839 260.784C361.182 261.736 361.372 262.764 361.296 263.755C360.801 268.478 361.068 273.2 360.801 277.923C360.458 279.104 360.344 280.323 360.535 281.541C360.573 281.732 360.573 281.96 360.573 282.151C360.42 283.103 360.458 284.055 360.496 284.969C360.801 292.168 360.116 299.366 360.116 306.565C360.077 306.908 360.078 307.25 360.078 307.555C360.078 308.279 360.077 309.041 359.925 309.764C359.506 310.907 359.697 312.088 359.773 313.23C359.735 313.421 359.659 313.611 359.506 313.725C359.049 315.744 359.582 317.801 359.24 319.857C359.201 322.371 359.163 324.885 359.125 327.399C358.706 329.189 359.125 330.979 358.897 332.769C358.744 332.959 358.592 333.112 358.364 333.188C350.137 334.216 341.91 335.321 333.683 336.349C332.693 336.463 331.626 336.616 330.788 335.816C330.56 335.435 330.446 335.016 330.446 334.559C330.484 329.989 330.293 325.38 330.522 320.81C331.131 318.067 330.712 315.249 330.826 312.506C330.865 311.288 330.826 310.107 330.826 308.888C330.826 308.545 330.788 308.203 330.826 307.86C330.826 307.517 330.826 307.174 330.826 306.831C330.826 306.603 330.788 306.374 330.788 306.146C330.598 293.844 331.436 281.542 331.169 269.239C331.131 267.373 330.979 265.583 330.56 263.793C326.903 247.187 323.095 230.619 319.438 214.013C319.362 213.708 319.324 213.403 319.248 213.099C319.019 212.261 318.753 211.499 317.648 211.575C316.544 211.651 316.353 212.451 316.353 213.327C316.315 215.117 316.201 216.907 316.429 218.659C316.734 220.945 316.734 223.23 316.734 225.477C316.582 235.494 317.077 245.511 317.229 255.528C317.344 262.003 317.115 268.478 317.572 274.914C317.991 281.389 317.724 287.826 317.877 294.301C317.953 298.338 317.305 302.261 316.277 306.146C316.125 306.641 315.934 307.136 315.782 307.631C315.363 309.079 314.982 310.564 314.258 311.897C313.916 312.545 313.725 313.268 313.497 313.954C310.526 320.314 306.717 326.218 303.327 332.388C302.032 334.788 300.623 337.111 299.29 339.472C298.795 340.348 298.414 341.3 297.424 341.796C296.472 341.986 295.71 341.491 294.91 341.148C287.026 337.911 279.104 334.711 271.22 331.512C270.344 331.169 269.392 330.903 269.049 329.836C269.049 328.427 269.582 327.17 270.839 326.294Z" fill="black"/>
<path d="M269.163 329.989C270.534 331.055 272.248 331.436 273.81 332.083C281.656 335.283 289.502 338.482 297.348 341.643C297.729 342.062 297.424 342.443 297.271 342.824C297.005 343.243 296.7 343.7 296.472 344.157C292.853 350.822 289.121 357.45 285.464 364.115C284.741 365.41 284.855 366.095 286.074 366.895C290.149 369.752 293.653 373.18 296.281 377.483C296.624 378.131 297.043 378.702 297.462 379.312C299.671 382.892 301.271 386.701 302.109 390.814C302.147 391.195 302.223 391.576 302.032 391.919C302.147 393.023 302.147 394.204 302.413 395.27C302.642 396.222 302.489 396.451 301.499 396.451C287.788 396.413 274.076 396.413 260.365 396.451C259.679 396.451 259.108 396.337 258.879 395.613C257.546 395.08 257.013 393.823 256.251 392.795C251.795 387.5 247.606 382.016 243.226 376.646C242.311 375.541 242.692 374.513 243.264 373.484C245.092 370.209 247.034 367.009 248.901 363.772C251.338 359.544 253.814 355.317 256.29 351.089C256.708 350.518 257.089 349.946 257.432 349.337C258.156 347.813 259.07 346.442 259.832 344.919C261.393 342.405 262.802 339.777 264.364 337.263C265.545 335.207 266.687 333.112 267.944 331.093C268.249 330.636 268.287 329.798 269.163 329.989Z" fill="#C6C6C6"/>
<path d="M330.903 335.93C336.044 335.74 341.072 334.787 346.138 334.216C350.213 333.759 354.555 333.036 358.668 332.883V337.454L358.44 355.355C358.364 359.354 358.325 363.353 358.211 367.314C358.173 368.266 358.554 368.876 359.24 369.371C366.362 374.474 373.484 379.54 380.607 384.606C384.339 387.272 385.482 391.233 386.091 395.461C386.205 396.222 385.863 396.489 385.139 396.413C384.682 396.375 384.263 396.413 383.806 396.413C364.8 396.413 345.757 396.413 326.751 396.451C326.37 395.841 326.523 395.194 326.637 394.546C326.637 394.394 326.637 394.28 326.675 394.128C326.408 393.594 326.18 393.023 326.256 392.414C326.903 385.101 327.399 377.826 328.084 370.513C328.465 366.476 328.198 362.439 328.579 358.402C328.998 355.278 328.922 352.117 329.227 348.956C329.303 348.194 329.227 347.432 329.341 346.671C329.722 345.566 329.608 344.424 329.608 343.319C329.608 341.415 329.57 339.548 329.646 337.644C329.722 336.92 329.722 336.006 330.903 335.93Z" fill="#C6C6C6"/>
<path d="M147.398 368.228C150.673 369.599 153.53 371.732 156.577 373.484C161.681 376.455 166.784 379.464 171.774 382.587C175.697 385.025 178.706 388.262 179.81 392.909C179.886 393.213 180.039 393.48 180.191 393.785C180.496 394.432 180.115 395.156 180.496 395.765C180.343 396.565 179.696 396.413 179.163 396.413C154.825 396.413 130.487 396.413 105.997 396.413C107.825 389.481 109.577 382.625 111.405 375.769C112.091 373.256 112.396 370.628 113.5 368.228C113.843 368 114.224 368.076 114.605 368.076C125.155 368.076 135.705 368.076 146.255 368.076C146.674 368.114 147.055 368.038 147.398 368.228Z" fill="black"/>
<path d="M320.695 166.899C321.19 165.223 320.428 164.842 318.829 164.804C315.401 164.728 312.011 164.423 308.583 164.194C308.202 164.156 307.784 164.156 307.822 163.585C308.088 157.148 308.164 150.75 308.088 144.313C308.241 144.046 307.631 143.818 308.088 143.551C308.469 141.875 308.393 140.161 308.202 138.485C307.593 132.696 307.745 126.907 308.126 121.08C308.317 118.185 308.164 115.252 308.241 112.358C308.279 111.405 308.164 110.453 308.812 109.615C309.688 108.93 310.716 109.082 311.745 109.082C314.03 109.082 316.277 109.044 318.562 109.12C319.629 109.158 320.733 109.387 320.733 110.72C320.809 115.633 321.076 120.546 320.581 125.46C320.048 126.298 319.172 126.183 318.372 126.298C314.449 126.755 312.544 128.735 312.468 132.658C312.392 138.562 312.392 144.465 312.468 150.369C312.506 153.911 314.144 155.968 317.153 156.501C313.649 155.244 312.697 152.578 312.811 149.15C312.963 143.818 312.811 138.485 312.849 133.153C312.887 128.697 314.83 126.755 319.21 126.716C320.657 126.716 322.142 126.64 323.59 126.755C326.561 126.945 328.655 128.887 328.732 131.858C328.884 138.333 328.884 144.808 328.732 151.283C328.655 153.987 327.018 155.625 324.542 156.501C327.284 156.044 329.036 154.254 329.112 151.283C329.341 144.808 329.341 138.333 329.112 131.858C328.998 128.735 327.132 126.983 323.971 126.374C321.304 125.879 321.228 125.802 321.19 123.06C321.19 119.366 321.19 115.709 321.19 112.015C321.19 111.215 321.114 110.339 321.647 109.615C324.39 108.854 327.132 108.968 329.836 109.768C330.369 109.996 330.941 110.148 331.474 110.377C331.817 110.491 332.121 110.682 332.388 110.872C332.655 111.063 332.959 111.253 333.264 111.367C333.492 111.482 333.721 111.596 333.988 111.71C334.14 111.786 334.292 111.901 334.445 112.015C339.282 115.633 341.224 120.47 340.653 126.412C340.348 129.23 340.577 132.087 340.539 134.905C340.615 141.418 340.615 147.931 340.539 154.444C340.5 154.787 340.462 155.168 340.348 155.51C340.272 155.739 340.12 155.929 339.967 156.12C339.929 156.615 339.891 157.148 339.853 157.643C339.586 159.967 339.777 162.29 339.739 164.651C339.739 165.642 339.32 165.984 338.482 165.642C333.569 163.433 328.846 164.766 324.123 166.403C323.209 166.822 321.99 167.584 320.695 166.899Z" fill="#C6C6C6"/>
<path d="M176.458 368.838C177.03 368 177.906 368.266 178.706 368.266C189.103 368.228 199.501 368.228 209.861 368.19C210.699 367.657 211.308 368.19 211.956 368.571C220.487 373.598 229.057 378.512 237.589 383.577C241.74 386.053 243.949 389.824 244.559 394.585C244.559 395.004 244.444 395.346 244.178 395.689C244.025 396.984 242.997 396.413 242.388 396.413C228.486 396.451 214.584 396.451 200.682 396.451C195.274 396.451 189.903 396.451 184.495 396.451C181.676 396.451 181.676 396.451 181.257 393.747C180.648 389.709 178.858 386.396 175.468 384.034C174.859 383.615 174.554 383.158 174.897 382.549C175.316 381.825 175.24 381.102 175.164 380.34C175.468 379.654 175.202 378.893 175.43 378.207C175.849 375.084 176.154 371.961 176.458 368.838Z" fill="black"/>
<path d="M29.4034 316.125C35.4212 316.125 41.4771 316.087 47.4949 316.125C48.9041 316.125 49.4373 315.972 48.9041 314.373C47.2663 309.498 45.7809 304.584 44.2575 299.671C42.2007 292.93 40.2583 286.112 38.0492 279.409C36.2972 274.076 32.8693 270.23 27.3467 268.478C26.5088 268.211 25.7851 267.716 24.871 267.716C24.2616 267.373 23.538 267.716 22.8905 267.449C22.5096 267.449 22.0906 267.449 21.7098 267.449C21.0623 267.716 20.3386 267.373 19.7292 267.716C17.5582 267.678 15.7301 268.782 13.7876 269.43C9.78844 270.725 5.82736 272.134 1.86628 273.505C1.29497 273.695 0.761746 274.076 0 273.581C0.799833 272.058 2.3995 271.448 3.61829 270.458C9.02669 266.307 14.397 262.117 19.8816 258.08C26.7754 253.014 35.4212 253.852 41.439 259.946C41.7437 260.251 42.0484 260.593 42.3531 260.898C43.1148 260.86 42.734 260.403 42.6578 260.06C41.1724 252.138 39.6489 244.216 38.1254 236.294C37.1351 231.19 31.6505 225.858 26.7754 225.477C26.1279 225.439 24.7948 225.096 24.7948 225.096C24.7948 225.096 23.4618 225.096 22.8143 224.829C22.2049 224.791 21.5955 224.753 20.9861 224.715L19.0056 224.449C18.5104 224.41 18.0153 224.372 17.5202 224.372L15.5777 224.106C14.9683 224.068 14.3208 224.03 13.7114 223.992L11.769 223.725C11.5024 223.611 11.0453 223.687 11.0453 223.268C11.0834 222.697 11.6166 222.697 12.0356 222.544C18.0534 220.526 24.0331 218.431 30.0509 216.45C33.8596 215.231 37.6303 215.346 41.2866 217.136C44.9049 218.888 47.4187 221.668 48.7518 225.515C50.5038 230.619 52.2558 235.722 54.0078 240.826C54.1221 241.169 54.0459 241.626 54.8076 241.702C54.8076 241.017 54.8076 240.369 54.8076 239.722C54.8457 224.829 54.7696 209.899 54.96 195.007C55.0362 189.637 57.2833 184.838 60.4446 180.534C64.3676 175.202 68.4429 169.984 72.4801 164.728C72.7849 164.309 73.1657 163.585 73.8132 163.928C74.4988 164.309 73.8894 164.994 73.737 165.413C71.2614 173.526 68.7476 181.6 66.2338 189.675C65.9291 190.665 65.8149 192.646 65.8149 192.646L65.5483 194.626C65.5483 194.626 65.5863 205.633 65.6625 209.785C65.7006 214.47 65.891 221.211 65.9291 225.896C66.1196 226.162 66.0053 226.467 66.1196 226.772C66.1957 226.581 66.31 226.391 66.5004 226.277C69.0142 219.65 70.8043 212.68 76.5174 207.728C79.4882 205.176 82.9922 203.653 86.4582 201.977C87.9055 201.253 89.3909 200.606 90.8382 199.882C91.2191 199.692 91.6 199.539 91.8666 199.844C92.2094 200.263 91.7523 200.492 91.5238 200.758C88.1721 204.605 84.8204 208.49 81.4688 212.337C79.412 214.698 78.6122 217.593 78.0409 220.564C75.5652 232.866 73.0515 245.13 70.6139 257.432C70.1187 259.946 69.357 262.422 69.2427 265.05C69.1285 265.507 68.8238 266.078 69.7379 265.964C73.3942 263.221 76.7459 259.946 81.1641 258.384C88.0198 255.947 94.2661 257.28 99.9411 261.774C102.112 263.488 104.321 265.202 106.492 266.916C106.873 267.221 107.559 267.449 107.216 268.02C106.987 268.401 106.416 268.325 105.883 268.249C102.874 267.792 99.8649 267.221 96.856 267.068C91.6 266.84 87.0295 268.82 84.3253 273.353C80.2119 280.246 76.5936 287.445 72.7468 294.529C72.4421 294.796 72.5563 295.177 72.4801 295.481C72.7087 295.481 72.8229 295.291 73.0134 295.215C74.9939 293.12 76.5555 290.682 79.2216 289.311C85.4679 286.036 93.3901 288.054 96.856 294.11C101.008 301.309 105.007 308.583 109.044 315.82C109.196 316.125 109.311 316.467 109.425 316.81C108.206 317.305 107.559 316.353 106.873 315.858C102.188 312.583 97.6559 309.117 92.8949 305.955C89.3909 303.632 86.6486 303.861 83.4112 306.87C80.288 309.764 77.3553 312.849 74.3464 315.858C74.8035 316.506 75.4129 316.201 75.908 316.201C83.335 316.239 90.7621 316.277 98.1891 316.163C100.017 316.125 100.398 316.734 100.398 318.448C100.36 336.73 100.36 355.012 100.36 373.294C100.36 374.055 100.398 374.817 100.436 375.579C100.017 376.455 100.474 377.407 100.132 378.283C99.0651 384.111 96.1324 388.795 91.2572 392.223C88.7434 393.975 85.9631 395.042 82.9161 395.499C82.0401 395.841 81.0879 395.384 80.2119 395.803C69.8521 395.803 59.4924 395.803 49.0945 395.803C48.2185 395.384 47.2663 395.841 46.3903 395.499C37.6303 394.356 29.8985 387.196 29.1368 377.521C28.9464 376.95 29.0225 376.379 29.0225 375.808C29.0225 356.573 29.0225 337.301 29.0225 318.067C29.1749 317.344 28.9844 316.696 29.4034 316.125Z" fill="#5882AF"/>
<path d="M211.499 62.1586C212.489 61.9682 213.479 61.8158 214.47 61.6254C216.603 61.3588 218.735 61.5873 220.868 61.5111C225.02 61.6254 228.638 63.1489 231.799 65.7388C234.542 68.0241 235.875 70.9949 235.532 74.6132C235.075 75.1083 234.504 74.9941 233.932 74.9941C232.066 74.956 230.39 75.5273 229.133 76.8984C228.067 78.0791 227.343 77.7744 226.62 76.6318C225.629 75.0702 224.182 74.2323 222.392 74.0038C219.078 73.6229 216.26 75.7177 215.727 78.879C215.231 82.0021 217.25 84.9729 220.373 85.7347C221.173 85.9251 222.049 85.7347 222.735 86.3441C222.735 87.3724 221.821 87.2201 221.249 87.4105C219.345 88.0199 217.288 88.2484 214.965 88.9721C217.631 90.7241 220.183 91.8667 222.963 90.8765C225.667 89.8862 228.067 89.5434 230.504 91.4859C231.342 92.1714 232.714 91.981 233.551 92.8951C233.399 94.8375 232.028 96.0183 230.657 97.1228C228.333 99.0271 225.591 99.8651 222.62 100.17C222.239 100.208 221.859 100.208 221.478 100.208C217.44 100.513 217.326 100.665 217.174 104.702C217.136 105.997 217.402 107.406 216.069 108.32C213.403 109.082 210.775 108.244 208.185 108.054C205.938 107.901 203.615 108.13 201.482 107.064C200.758 106.302 200.834 105.312 200.949 104.397C201.368 100.855 201.482 97.2751 201.939 93.6949C202.206 91.8286 202.167 90.0005 199.997 89.1244C199.501 88.7436 199.044 88.3627 198.587 87.9437C195.807 84.0588 196.797 80.9357 201.52 78.6504C209.176 76.708 210.432 75.1083 210.813 67.1481C210.851 66.0816 210.813 64.9771 210.851 63.9106C210.889 63.3774 210.813 62.6538 211.499 62.1586Z" fill="#FD9993"/>
<path d="M305.841 102.112C302.299 100.627 299.024 98.7604 296.776 95.523C295.177 93.2378 293.996 90.8002 293.615 88.0198C293.425 86.2297 293.425 84.4777 293.615 82.6876C294.072 78.7265 296.015 75.451 298.452 72.4421C300.471 69.9664 302.756 67.7193 305.879 66.5767C306.07 66.3862 306.184 66.1196 306.451 66.0054C306.87 65.7768 307.327 65.5864 307.746 65.396C311.44 64.1772 315.211 63.5678 319.096 63.4535C322.561 63.3392 326.027 62.8441 329.455 63.7963C332.007 64.4819 334.369 65.396 336.501 66.9575C338.901 68.7096 339.929 71.1091 339.853 74.0418C339.815 76.4032 338.596 77.622 336.121 77.9648C335.092 77.2411 335.168 76.1366 335.016 75.0701C334.559 71.8327 333.683 68.9 330.712 66.9956C329.341 66.1196 328.198 66.0815 326.903 67.1099C322.828 70.3854 319.172 73.8894 318.296 79.4121C318.143 80.4785 318.105 81.545 318.143 82.6495C318.296 87.3723 316.163 90.6478 311.935 92.5903C309.993 93.5044 310.069 93.4663 311.478 95.1041C313.192 97.1608 315.211 98.9128 316.772 101.046C317.877 102.569 317.686 103.026 315.82 103.445C313.535 103.94 311.288 103.788 309.04 103.293C308.507 103.179 308.012 102.988 307.479 102.836C307.06 102.683 306.641 102.569 306.26 102.455C306.108 102.303 305.955 102.226 305.841 102.112Z" fill="black"/>
<path d="M359.544 307.746C359.544 307.479 359.582 307.174 359.582 306.908C360.573 306.146 361.753 306.374 362.896 306.374C384.263 306.374 405.63 306.374 427.035 306.374C430.92 306.374 430.92 306.374 430.92 302.566C430.92 296.929 430.92 291.292 430.92 285.617C430.92 283.408 430.729 283.255 428.52 283.255C406.811 283.255 385.139 283.255 363.429 283.217C362.058 283.217 361.068 283.865 360.039 284.474C359.849 283.56 359.887 282.722 360.306 281.884C361.334 280.97 362.591 281.275 363.772 281.275C382.625 281.237 401.478 281.275 420.293 281.275C439.832 281.275 459.371 281.275 478.91 281.275C479.557 281.275 480.167 281.275 480.814 281.275C482.795 281.199 483.061 281.008 483.061 279.104C483.099 273.581 483.061 268.059 483.099 262.536C483.099 260.936 482.452 260.365 480.928 260.441C480.243 260.479 479.519 260.441 478.834 260.441C440.899 260.441 402.964 260.441 364.991 260.441C363.391 260.441 361.829 260.517 360.23 260.555C359.697 260.022 359.963 259.375 359.887 258.765C379.959 258.765 399.993 258.803 420.065 258.803C440.823 258.803 461.58 258.803 482.338 258.803C484.813 258.803 484.813 258.803 484.813 261.355C484.813 267.83 484.813 274.305 484.813 280.78C484.813 281.465 485.042 282.189 484.471 282.76C483.785 283.027 483.099 282.875 482.414 282.875C466.531 282.875 450.649 282.875 434.767 282.875C434.081 282.875 433.357 282.684 432.71 283.065C432.558 290.949 432.481 298.795 432.748 306.679C433.396 307.06 434.119 306.87 434.805 306.87C450.839 306.87 466.836 306.87 482.871 306.908C483.518 306.908 484.28 306.565 484.813 307.212C484.813 309.269 484.813 311.364 484.813 313.421C483.404 314.106 481.881 313.573 480.433 313.725C478.757 313.878 477.082 313.497 475.406 313.916C475.368 314.677 475.253 315.439 475.253 316.163C475.253 341.91 475.253 367.695 475.215 393.442C475.215 394.166 475.596 395.118 474.758 395.537C474.035 395.88 473.463 395.118 472.854 394.737C468.36 391.728 463.827 388.795 459.371 385.786C458.343 385.063 457.619 385.101 456.591 385.786C451.715 389.176 446.802 392.452 441.889 395.765C441.241 395.194 441.584 394.47 441.584 393.823C441.546 367.923 441.584 342.062 441.546 316.163C441.546 315.401 441.737 314.639 441.356 313.916C440.632 313.535 439.87 313.725 439.109 313.725C413.324 313.725 387.5 313.725 361.715 313.725C360.953 313.725 360.192 313.878 359.468 313.573C358.973 312.43 359.049 311.288 359.392 310.145C360.192 312.049 361.753 312.202 363.581 312.202C402.278 312.164 440.975 312.164 479.71 312.164C480.205 312.164 480.738 312.126 481.233 312.164C482.528 312.202 483.061 311.63 483.023 310.335C482.985 309.079 482.49 308.469 481.195 308.469C480.433 308.469 479.672 308.469 478.91 308.469C440.327 308.469 401.745 308.469 363.163 308.469C361.982 308.355 360.649 308.622 359.544 307.746Z" fill="#5A83AF"/>
<path d="M320.695 166.899C322.561 166.365 324.466 165.946 326.294 165.261C330.75 163.623 335.13 163.318 339.625 165.642C340.005 162.899 339.51 160.233 340.044 157.682C340.082 159.434 340.272 161.224 340.082 162.976C339.815 165.185 340.463 166.594 342.71 167.127C341.681 168.079 340.463 167.775 339.32 167.584C337.111 167.28 334.94 167.356 332.388 167.432C333.226 167.851 333.797 167.775 334.369 167.775C336.692 167.813 339.015 167.737 341.339 168.117C342.672 168.346 343.967 168.194 345.262 167.66C345.985 168.613 347.128 168.498 348.118 168.803C349.451 169.184 350.784 169.565 352.117 169.831C354.669 170.365 356.231 171.888 356.916 174.364C355.202 175.468 353.336 174.973 351.584 174.783C349.489 174.554 347.432 174.592 345.3 174.745C348.385 174.935 351.47 175.049 354.555 175.354C355.355 175.43 356.231 175.278 356.916 175.849C357.183 176.611 357.107 177.411 356.954 178.211C356.916 178.553 356.916 178.896 356.878 179.277C356.345 180.001 355.621 179.696 354.974 179.658C351.66 179.467 348.308 179.81 344.995 179.391C348.118 180.229 351.317 179.963 354.517 180.001C355.431 180.039 356.421 179.772 357.183 180.61C356.573 181.029 356.459 181.753 356.193 182.362C354.745 185.371 352.346 186.933 348.994 187.009C347.166 187.047 345.3 187.047 343.471 187.047C337.339 186.78 331.169 186.514 325.037 186.247C322.447 186.133 319.857 185.98 317.267 185.866C318.372 179.544 319.514 173.221 320.695 166.899Z" fill="#FD9993"/>
<path d="M307.326 65.9673C307.06 66.3862 306.603 66.2339 306.222 66.31C305.917 65.9292 306.031 65.4721 306.031 65.0151C306.031 53.7031 306.031 42.3531 306.031 31.0412C306.031 30.7365 306.031 30.3937 306.146 30.089C306.222 29.9748 306.222 29.8605 306.222 29.7462C306.793 29.2892 307.441 29.5177 308.05 29.5177C369.904 29.5177 431.758 29.5177 493.611 29.5177C494.221 29.5177 494.868 29.3273 495.478 29.7462C495.935 30.4318 495.821 31.1935 495.821 31.9553C495.821 72.4802 495.821 113.005 495.821 153.53C495.821 154.292 495.935 155.053 495.478 155.739C494.906 156.12 494.259 155.929 493.611 155.929C443.07 155.929 392.528 155.929 341.986 155.929C341.377 155.929 340.729 156.082 340.12 155.777C340.12 155.472 340.12 155.206 340.12 154.901C341.186 154.101 342.443 154.368 343.624 154.368C368.952 154.368 394.242 154.368 419.57 154.368C442.841 154.368 466.151 154.368 489.422 154.368C489.917 154.368 490.45 154.368 490.945 154.368C494.069 154.368 494.069 154.33 494.069 151.13C494.069 112.243 494.069 73.3562 494.069 34.431C494.069 31.0793 494.069 31.0793 490.717 31.0793C430.806 31.0793 370.932 31.0793 311.021 31.0793C310.716 31.0793 310.373 31.0793 310.069 31.0793C307.784 31.1174 307.593 31.2697 307.593 33.593C307.593 43.4957 307.593 53.3984 307.593 63.3011C307.593 64.2152 307.669 65.1293 307.326 65.9673Z" fill="#5F87B2"/>
<path d="M358.782 253.662C358.706 253.395 358.592 253.09 358.516 252.824C359.658 251.986 360.953 252.29 362.21 252.29C396.717 252.29 431.263 252.29 465.77 252.29C470.721 252.29 475.672 252.29 480.624 252.29C482.871 252.29 483.061 252.1 483.061 249.929C483.099 244.597 483.099 239.265 483.061 233.932C483.061 231.685 482.871 231.495 480.509 231.457C479.824 231.457 479.1 231.457 478.415 231.457C438.004 231.457 397.555 231.457 357.145 231.457C355.888 231.457 354.593 231.761 353.488 230.847C353.374 230.466 353.26 230.085 353.146 229.705C354.022 229.705 354.936 229.743 355.812 229.743C397.936 229.743 440.099 229.743 482.223 229.743C484.775 229.743 484.775 229.743 484.775 232.371C484.775 238.731 484.699 245.054 484.813 251.414C484.851 253.243 484.394 253.738 482.528 253.738C444.86 253.662 407.153 253.662 369.447 253.662C365.905 253.662 362.325 253.662 358.782 253.662Z" fill="#6189B3"/>
<path d="M128.202 334.826C127.859 335.473 127.554 336.082 127.212 336.73C126.869 336.082 127.059 335.359 127.059 334.673C127.059 248.177 127.059 161.643 127.059 75.1463C127.059 74.4988 126.754 73.7371 127.326 73.1658C152.159 73.1658 177.03 73.1658 201.863 73.1658C202.663 73.8133 202.167 74.118 201.52 74.3084C200.644 74.575 199.768 74.4607 198.854 74.4607C176.42 74.4607 153.949 74.4607 131.515 74.4607C130.601 74.4607 129.573 74.1941 128.849 75.0701C128.43 76.1747 128.621 77.3173 128.621 78.4599C128.621 160.576 128.621 242.692 128.621 324.771C128.621 328.122 128.811 331.512 128.202 334.826Z" fill="#5D85B1"/>
<path d="M39.1538 72.785C39.3442 64.939 42.3912 58.2356 47.9901 52.9415C54.503 46.7333 62.4632 44.2195 71.4899 45.324C81.8116 46.619 89.4672 51.9893 93.9615 61.1303C99.2175 71.8328 98.0749 82.383 90.6859 91.8667C84.8205 99.408 76.8222 103.026 67.2623 102.874C60.7112 102.76 54.96 100.589 49.7802 96.4372C43.9528 91.7905 40.9058 85.6966 39.3442 78.6504C39.1157 77.6221 39.23 76.5175 39.1538 75.4511C39.0015 74.537 39.0015 73.661 39.1538 72.785Z" fill="#5A83AF"/>
<path d="M308.964 109.73C308.774 120.356 308.622 130.944 308.393 141.571C308.393 142.256 308.583 142.98 308.126 143.589C308.126 142.447 308.165 141.304 308.165 140.161C308.165 137.381 306.717 135.362 304.051 134.905C302.87 134.715 302.794 134.22 302.794 133.306C302.832 125.917 302.832 118.49 302.794 111.101C302.794 109.692 303.023 109.006 304.584 109.692C305.003 109.882 305.46 109.653 305.803 109.387C305.917 109.273 306.07 109.196 306.222 109.196C306.565 109.234 306.87 109.311 307.212 109.311C307.746 109.349 308.279 109.311 308.736 109.577C308.85 109.577 308.888 109.653 308.964 109.73Z" fill="#6842C2"/>
<path d="M128.088 74.3084C128.735 73.699 129.535 74.0418 130.259 74.0418C153.568 74.0037 176.877 74.0418 200.187 73.9656C200.72 73.9656 201.977 74.7655 201.863 73.1658C202.358 71.1853 202.548 69.1285 203.462 67.2242C205.1 63.8725 207.919 62.4633 211.461 62.1967C211.346 65.6626 211.423 69.0905 210.661 72.5183C209.823 76.1747 207.424 78.3838 203.691 78.917C202.929 79.0312 202.206 79.1836 201.482 79.2979C200.796 78.6123 200.872 77.7744 201.025 76.9745C201.33 75.3749 200.568 74.9178 199.159 74.9559C198.473 74.994 197.749 74.9559 197.064 74.9559C175.24 74.9559 153.416 74.9559 131.554 74.9559C130.411 74.8797 129.154 75.1844 128.088 74.3084Z" fill="#ECE9E9"/>
<path d="M127.326 73.1658C127.021 73.8894 127.136 74.6512 127.136 75.4129C127.136 161.871 127.136 248.367 127.136 334.826C127.136 335.473 127.174 336.082 127.212 336.73C127.097 336.997 126.983 337.263 126.869 337.53C126.869 336.692 126.831 335.892 126.831 335.054C126.831 248.558 126.831 162.1 126.869 75.6034C126.869 74.8035 126.412 73.8513 127.326 73.1658Z" fill="#FCFCFC"/>
<path d="M304.626 136.52C306.859 137.935 307.729 141.807 306.253 144.004C305.648 144.935 304.74 145.456 303.566 145.494C302.734 145.494 301.939 145.494 301.107 145.494C298.457 145.456 297.511 144.526 297.511 141.956C297.511 140.839 297.36 139.685 297.587 138.643C297.814 137.637 298.495 136.744 299.706 136.52C301.371 136.297 302.999 136.297 304.626 136.52Z" fill="#6842C2"/>
<path d="M495.478 29.7844C494.792 29.7463 494.069 29.7082 493.383 29.7082C431.758 29.7082 370.132 29.7082 308.507 29.7082C307.745 29.7082 306.984 29.7844 306.222 29.7844C306.717 29.0607 307.517 29.3654 308.164 29.3654C369.942 29.3654 431.758 29.3654 493.535 29.3654C494.183 29.3654 494.945 29.0988 495.478 29.7844Z" fill="#FCFCFC"/>
<path d="M276.133 120.356C275.752 121.003 275.371 121.613 275.028 122.26C274.152 121.308 274.419 120.089 274.419 118.985C274.381 105.273 274.419 91.6 274.381 77.8886C274.381 76.8983 274.571 75.8319 273.924 74.9559C273.2 74.2322 272.248 74.4607 271.372 74.4607C260.784 74.4607 250.234 74.4607 239.645 74.4607C238.96 74.4607 238.236 74.5369 237.551 74.3846C236.941 74.2703 236.217 74.1941 236.56 73.2039C249.053 73.2039 261.546 73.2039 274.038 73.1658C275.524 73.1658 275.79 73.699 275.79 75.0321C275.752 89.5052 275.752 103.94 275.79 118.413C275.79 119.061 275.409 119.823 276.133 120.356Z" fill="#6188B3"/>
<path d="M340.12 155.815C391.271 155.815 442.422 155.815 493.573 155.815C494.221 155.815 494.83 155.777 495.478 155.777C494.792 156.501 493.916 156.158 493.154 156.158C442.156 156.158 391.157 156.158 340.158 156.158C340.043 156.044 340.043 155.929 340.12 155.815Z" fill="#FCFCFC"/>
<path d="M236.522 73.2039C236.675 74.6131 237.779 73.9657 238.427 73.9657C249.815 74.0037 261.203 74.0038 272.591 74.0038C273.276 74.0038 274 73.7752 274.609 74.2704C273.695 75.1083 272.591 74.8798 271.524 74.8798C260.974 74.9178 250.462 74.8798 239.912 74.9178C238.769 74.9178 237.627 74.7655 236.522 75.0702C235.989 75.2987 235.608 75.1464 235.303 74.6512C233.818 66.9957 230.238 63.4917 222.544 62.0824C222.125 62.0063 221.706 61.8539 221.287 61.7016C221.173 61.6254 221.135 61.5492 221.173 61.4349C221.211 61.3588 221.249 61.3207 221.287 61.3207C222.544 61.3207 223.801 61.3207 225.096 61.3207C225.667 61.7777 226.429 61.2445 227 61.7016C229.895 62.2348 232.561 63.3393 234.656 65.396C236.827 67.567 237.436 70.2331 236.522 73.2039Z" fill="#ECE9E9"/>
<path d="M359.506 313.459C361.41 313.497 363.315 313.497 365.219 313.535C389.9 313.535 414.542 313.535 439.223 313.535C439.946 313.535 440.746 313.23 441.394 313.801C414.085 313.801 386.777 313.801 359.506 313.763C359.43 313.687 359.43 313.573 359.506 313.459Z" fill="#FCFCFC"/>
<path d="M441.394 313.839C441.965 314.487 441.66 315.287 441.66 316.01C441.66 341.757 441.66 367.505 441.699 393.213C441.699 394.013 441.584 394.851 441.927 395.651C441.013 395.08 441.432 394.166 441.432 393.404C441.394 366.895 441.394 340.348 441.394 313.839Z" fill="#FCFCFC"/>
<path d="M326.789 392.756C326.751 393.251 326.751 393.709 326.713 394.204C322.371 391.271 317.991 388.338 313.649 385.367C312.811 384.796 312.202 385.101 311.44 385.634C308.355 387.767 305.194 389.862 302.032 391.957C301.956 391.69 301.88 391.423 301.766 391.119C301.804 390.928 301.842 390.7 301.994 390.623C305.194 388.3 308.431 385.939 311.821 383.882C312.468 383.501 313.192 383.463 313.801 383.882C318.105 386.662 322.447 389.328 326.484 392.49C326.637 392.528 326.713 392.642 326.789 392.756Z" fill="#5E86B1"/>
<path d="M356.916 176.04C353.069 175.887 349.223 175.735 345.376 175.544C344.69 175.506 343.586 175.811 343.624 174.707C343.662 173.716 344.69 174.097 345.338 174.097C349.185 174.173 353.031 174.326 356.878 174.44C357.602 174.821 357.906 175.278 357.259 175.963C357.183 176.116 357.069 176.154 356.916 176.04Z" fill="#050303"/>
<path d="M345.185 167.698C345.147 168.308 344.957 168.765 344.195 168.727C340.234 168.536 336.235 168.422 332.274 168.27C331.74 168.232 331.131 168.155 331.169 167.508C331.207 166.708 331.893 166.822 332.464 166.822C335.854 166.937 339.282 167.051 342.672 167.165C343.509 167.356 344.5 166.899 345.185 167.698Z" fill="#070504"/>
<path d="M357.107 180.61C352.955 180.496 348.804 180.344 344.614 180.229C344.081 180.229 343.319 180.344 343.395 179.467C343.471 178.668 344.157 178.744 344.728 178.782C348.766 178.934 352.803 179.125 356.84 179.315C357.488 179.62 357.564 180.039 357.107 180.61Z" fill="#060404"/>
<path d="M484.813 307.098C484.014 306.755 483.176 306.87 482.376 306.87C466.493 306.87 450.611 306.87 434.729 306.87C434.081 306.87 433.319 307.136 432.748 306.603C449.43 306.603 466.074 306.603 482.757 306.603C483.442 306.603 484.28 306.222 484.813 307.098Z" fill="#FCFCFC"/>
<path d="M432.672 282.989C433.015 282.417 433.586 282.646 434.043 282.646C450.84 282.646 467.636 282.646 484.433 282.646C483.785 283.217 482.985 282.951 482.262 282.951C465.732 282.989 449.202 282.989 432.672 282.989Z" fill="#FCFCFC"/>
<path d="M244.178 395.689C244.178 395.308 244.14 394.927 244.14 394.546C244.825 393.937 245.663 393.975 246.463 393.975C248.862 393.937 251.262 393.937 253.7 393.975C254.918 394.013 255.909 393.67 256.708 392.718C257.47 393.67 258.194 394.623 258.956 395.575C254.042 395.613 249.129 395.651 244.178 395.689Z" fill="#5B82AD"/>
<path d="M306.146 30.1271C306.146 41.3247 306.184 52.4843 306.184 63.682C306.184 64.558 306.222 65.434 306.222 66.3481C306.07 66.4243 305.955 66.5005 305.803 66.6147C305.803 55.1504 305.803 43.6481 305.803 32.1838C305.841 31.4601 305.613 30.7365 306.146 30.1271Z" fill="#FCFCFC"/>
<path d="M147.398 368.228C136.086 368.228 124.812 368.228 113.5 368.266C113.538 368.152 113.538 368 113.576 367.885C124.698 367.885 135.857 367.885 146.979 367.923C147.131 368 147.246 368.114 147.398 368.228Z" fill="#98613F"/>
<path d="M25.0614 45.8571C24.8329 46.0476 24.6805 46.3142 24.4901 46.3523C24.1854 46.4285 24.1092 46.1238 24.0331 45.8952C23.3475 44.3717 22.6238 42.8102 21.9764 41.2867C21.4812 40.1441 21.0623 38.9633 20.3767 37.935C20.1863 37.6684 20.1863 37.2875 20.4529 37.0971C20.6052 36.9828 21.0623 37.0209 21.1003 37.1352C22.3953 40.0298 23.7284 42.9244 25.0614 45.8571Z" fill="white"/>
<path d="M243.34 11.4643C243.226 10.017 244.14 9.40758 244.825 8.64583C246.273 7.08425 248.177 6.01781 249.51 4.34197C249.738 4.07536 250.005 3.73257 250.462 4.03727C250.957 4.38006 250.691 4.68476 250.386 4.95137C248.063 7.12234 245.701 9.29332 243.34 11.4643Z" fill="white"/>
<path d="M174.211 34.3168C174.516 34.6215 174.821 34.85 175.049 35.1166C176.801 37.0971 178.515 39.1158 180.267 41.0963C180.496 41.3629 180.915 41.6295 180.496 42.0485C180.001 42.5817 179.696 42.0866 179.429 41.7819C177.601 39.7252 175.811 37.6685 174.021 35.5737C173.792 35.307 173.64 35.0404 173.792 34.6976C173.869 34.5834 174.059 34.4691 174.211 34.3168Z" fill="white"/>
<path d="M454.229 205.862C454.267 206.129 454.153 206.357 453.848 206.395C453.544 206.433 453.391 206.281 453.277 206.052C451.944 203.348 450.573 200.682 449.202 198.016C449.049 197.749 449.049 197.483 449.316 197.407C449.811 197.216 450.154 197.445 450.383 197.902C451.182 199.616 452.02 201.291 452.82 203.005C453.277 203.92 453.734 204.872 454.229 205.862Z" fill="white"/>
<path d="M399.536 180.458C396.603 182.362 394.013 184 391.423 185.638C391.157 185.828 390.852 185.942 390.585 185.6C390.433 185.371 390.395 185.066 390.623 184.914C393.251 183.314 395.651 181.334 398.546 180.153C398.698 180.153 398.888 180.267 399.536 180.458Z" fill="white"/>
<path d="M103.064 0C103.369 1.75202 102.303 2.17098 101.769 2.85655C100.474 4.53239 99.1032 6.20823 97.7702 7.84598C97.5036 8.18877 97.1608 8.68391 96.7037 8.18877C96.3229 7.8079 96.8561 7.54129 97.0465 7.27468C98.7224 4.76091 100.779 2.58994 103.064 0Z" fill="white"/>
<path d="M24.49 138.6C23.5378 141.304 22.6237 144.008 21.6716 146.712C21.5573 147.017 21.3288 147.36 20.986 147.208C20.4909 147.017 20.7194 146.598 20.8336 146.255C21.7858 143.589 22.3952 140.809 23.6521 138.219C23.7664 137.952 23.6902 137.495 24.1853 137.648C24.6805 137.838 24.5662 138.219 24.49 138.6Z" fill="white"/>
<path d="M301.271 134.829C301.271 126.336 301.271 117.804 301.271 109.311C301.804 109.73 301.652 110.339 301.652 110.91C301.652 118.375 301.652 125.802 301.652 133.268C301.652 133.801 301.804 134.41 301.271 134.829Z" fill="#FCFCFC"/>
<path d="M358.478 355.317C358.478 351.965 358.249 348.613 358.744 345.262C358.63 348.613 359.125 351.965 358.478 355.317Z" fill="#FCFCFC"/>
<path d="M475.406 313.839C477.196 313.23 479.062 313.687 480.928 313.573C482.223 313.459 483.556 313.763 484.813 313.344C484.432 314.068 483.709 313.839 483.137 313.839C480.548 313.839 477.958 313.839 475.406 313.839Z" fill="#FCFCFC"/>
<path d="M306.184 109.311L305.993 109.349L305.803 109.311C305.803 106.911 305.803 104.512 305.803 102.074C305.917 102.074 306.032 102.074 306.184 102.112C307.098 104.512 307.098 106.911 306.184 109.311Z" fill="#FCFCFC"/>
<path d="M221.287 61.3587C221.287 61.473 221.287 61.6253 221.287 61.7396C219.002 61.7015 216.755 61.7015 214.47 61.6634C216.717 60.9397 219.04 61.5111 221.287 61.3587Z" fill="#FCFCFC"/>
<path d="M359.24 319.895C359.24 317.839 359.049 315.782 359.506 313.763C359.43 315.82 359.849 317.915 359.24 319.895Z" fill="#FCFCFC"/>
<path d="M293.577 82.6876C293.577 84.4777 293.577 86.2297 293.577 88.0198C293.082 86.2297 293.082 84.4396 293.577 82.6876Z" fill="#FCFCFC"/>
<path d="M304.775 146.674C303.099 147.169 301.385 147.208 299.709 146.674C301.385 146.674 303.061 146.674 304.775 146.674Z" fill="#FCFCFC"/>
<path d="M304.66 136.315C303.023 136.315 301.385 136.315 299.747 136.315C301.385 135.781 303.023 135.781 304.66 136.315Z" fill="#FCFCFC"/>
<path d="M39.1538 72.7849C39.1538 73.6609 39.1538 74.5369 39.1538 75.4129C38.6968 74.5369 38.6968 73.6609 39.1538 72.7849Z" fill="#FCFCFC"/>
<path d="M185.942 256.67C185.904 255.833 185.828 254.995 186.209 254.195C186.171 255.033 186.514 255.909 185.942 256.67Z" fill="#FEFEFE"/>
<path d="M186.323 250.957C186.285 250.119 186.209 249.282 186.59 248.482C186.552 249.32 186.894 250.196 186.323 250.957Z" fill="#FEFEFE"/>
<path d="M187.085 239.95C187.047 239.112 186.933 238.274 187.352 237.474C187.313 238.274 187.656 239.15 187.085 239.95Z" fill="#FEFEFE"/>
<path d="M187.466 234.237C187.428 233.399 187.351 232.561 187.732 231.761C187.656 232.561 188.037 233.437 187.466 234.237Z" fill="#FEFEFE"/>
<path d="M356.916 176.04C357.03 176.001 357.145 175.963 357.259 175.925C357.183 176.687 357.564 177.525 356.954 178.211C356.916 177.487 356.916 176.763 356.916 176.04Z" fill="#FEFEFE"/>
<path d="M187.847 228.905C187.847 228.067 187.694 227.229 188.113 226.429C188.075 227.229 188.418 228.105 187.847 228.905Z" fill="#FEFEFE"/>
<path d="M188.227 223.573C188.227 222.735 188.075 221.897 188.494 221.097C188.456 221.897 188.799 222.773 188.227 223.573Z" fill="#FEFEFE"/>
<path d="M184.8 273.429C184.761 272.591 184.685 271.753 185.066 270.953C185.028 271.791 185.371 272.667 184.8 273.429Z" fill="#FEFEFE"/>
<path d="M186.704 245.282C186.666 244.444 186.59 243.606 186.971 242.807C186.933 243.606 187.275 244.482 186.704 245.282Z" fill="#FEFEFE"/>
<path d="M185.18 268.097C185.18 267.259 185.028 266.421 185.447 265.621C185.409 266.459 185.752 267.335 185.18 268.097Z" fill="#FEFEFE"/>
<path d="M185.561 262.384C185.523 261.546 185.447 260.708 185.828 259.908C185.79 260.746 186.133 261.622 185.561 262.384Z" fill="#FEFEFE"/>
<path d="M22.8904 267.449C23.576 267.411 24.2615 267.335 24.8709 267.716C24.2234 267.678 23.4998 267.982 22.8904 267.449Z" fill="#FCFCFC"/>
<path d="M184.419 278.761C184.381 278.037 184.266 277.314 184.685 276.666C184.647 277.39 184.952 278.152 184.419 278.761Z" fill="#FEFEFE"/>
<path d="M227 61.7016C226.353 61.6254 225.629 61.9682 225.096 61.3207C225.743 61.4349 226.467 61.0922 227 61.7016Z" fill="#FCFCFC"/>
<path d="M326.713 394.585C326.751 395.232 326.789 395.841 326.827 396.489C326.18 395.841 326.256 395.232 326.713 394.585Z" fill="#FCFCFC"/>
<path d="M19.7292 267.716C20.3386 267.297 21.0242 267.411 21.7098 267.449C21.1004 267.982 20.3767 267.678 19.7292 267.716Z" fill="#FCFCFC"/>
<path d="M256.708 392.756C256.861 394.166 256.366 394.737 254.804 394.661C251.262 394.508 247.72 394.585 244.14 394.585C243.721 392.528 243.187 390.509 242.083 388.719C240.826 386.7 239.264 385.063 237.132 383.844C228.562 378.931 220.068 373.903 211.575 368.914C211.042 368.609 210.509 368.19 209.861 368.19C212.032 360.725 214.165 353.26 216.374 345.795C221.782 327.551 227.191 309.307 232.599 291.063C234.275 285.388 233.856 279.713 232.98 273.962C231.038 261.469 229.209 248.901 227.381 236.408C226.239 228.6 225.096 220.754 223.991 212.908C225.743 213.213 226.772 214.584 227.914 215.688C230.923 218.583 234.008 221.402 237.17 224.144C240.712 227.229 244.102 227.305 247.796 224.41C248.367 223.991 248.977 222.697 249.853 224.106C250.691 229.857 250.995 235.684 251.529 241.474C252.138 247.948 252.709 254.461 253.243 260.936C253.814 267.563 254.423 274.152 254.995 280.78C255.337 284.512 255.566 288.207 255.985 291.939C256.099 293.082 256.213 294.224 255.604 295.253C255.832 299.861 254.004 304.127 253.128 308.545C252.214 313.192 251.033 317.801 249.891 322.371C249.51 323.818 249.967 324.275 251.338 324.352C253.09 324.466 254.88 324.39 256.632 324.847C257.318 325.494 257.242 326.332 257.242 327.17C257.242 334.216 257.242 341.262 257.242 348.308C257.242 349.261 257.089 350.213 256.708 351.089C252.405 358.592 248.101 366.095 243.721 373.56C242.997 374.779 242.997 375.541 243.911 376.684C248.253 382.016 252.443 387.386 256.708 392.756Z" fill="#FEFEFE"/>
<path d="M128.088 74.3083C151.93 74.3083 175.773 74.3083 199.654 74.3083C202.091 74.3083 202.091 74.3083 201.634 76.784C201.482 77.5839 201.558 78.4218 201.52 79.2597C201.139 79.4882 200.758 79.7167 200.377 79.9834C197.216 82.0401 196.797 84.1349 198.892 87.8674C198.092 88.9339 196.911 88.553 195.883 88.553C179.391 88.5911 162.861 88.553 146.37 88.5911C141.761 88.5911 142.256 88.0579 142.256 92.8188C142.256 161.376 142.256 229.895 142.256 298.452C142.256 300.166 142.18 301.88 141.761 303.556C138.828 310.335 135.934 317.153 133.001 323.933C131.439 327.589 129.84 331.245 128.24 334.902C127.821 334.254 128.011 333.531 128.011 332.845C127.973 247.263 127.973 161.719 127.973 76.1746C127.973 75.5652 128.05 74.9177 128.088 74.3083Z" fill="#FEFEFE"/>
<path d="M167.241 134.029C167.279 132.62 166.67 131.325 166.442 129.954C164.156 116.471 174.745 104.969 188.456 105.921C189.065 106.378 189.18 107.102 189.37 107.749C193.179 122.489 197.178 137.191 200.834 151.968C202.129 157.263 203.843 162.024 207.995 165.87C211.956 169.527 215.308 173.793 219.04 177.677C219.345 177.982 219.611 178.363 220.03 178.515C220.297 178.515 220.335 178.325 220.335 178.134C220.145 173.64 220.83 169.146 220.754 164.652C220.602 155.587 221.097 146.522 221.249 137.457C221.363 128.659 221.706 119.861 221.935 111.025C221.935 110.263 221.859 109.501 222.43 108.854C223.611 108.397 224.563 109.006 225.439 109.539C229.476 112.015 231.342 115.709 231.38 120.356C231.419 129.002 231.38 137.61 231.38 146.255C231.38 146.751 231.38 147.284 231.38 147.779C231.419 149.988 231.571 150.102 233.666 149.645C241.207 147.969 248.748 146.217 256.328 144.656C256.747 144.618 257.166 144.465 257.584 144.351C258.613 144.161 259.679 143.894 260.708 143.665C261.431 143.513 262.193 143.323 262.802 144.008C262.65 145.151 261.85 145.913 261.279 146.827C257.623 152.273 255.337 158.253 254.157 164.69C253.738 167.051 254.157 169.374 254.461 171.698C254.08 172.421 253.357 172.498 252.709 172.688C243.226 175.24 233.78 177.868 224.296 180.458C222.125 181.067 222.125 181.029 223.534 182.743C226.581 186.399 230.047 189.637 233.056 193.331C233.589 193.979 234.427 194.626 233.475 195.578C228.943 199.235 224.258 202.739 219.573 206.243C219.078 206.624 218.545 207.005 217.898 207.081C217.669 207.195 217.44 207.309 217.25 207.462C214.432 209.29 214.432 209.29 212.032 206.814C210.661 205.443 209.328 204.034 207.995 202.625C207.119 202.472 206.624 201.749 206.052 201.177C199.235 194.626 192.76 187.771 186.247 180.915C179.353 173.64 174.973 164.88 172.459 155.206C170.936 149.302 169.45 143.399 167.813 137.533C167.546 136.391 167.508 135.21 167.241 134.029Z" fill="#04D361"/>
<path d="M167.241 134.029C168.879 138.486 169.755 143.132 171.012 147.703C172.726 153.987 174.097 160.348 176.915 166.289C180.496 173.869 185.752 180.115 191.655 185.942C197.178 191.427 202.586 197.064 208.033 202.663C207.271 203.386 206.319 203.005 205.519 202.967C193.369 202.167 181.219 201.291 169.069 200.454C165.413 200.187 161.757 199.958 158.138 199.692C158.976 193.598 159.738 187.542 160.614 181.448C162.709 166.518 164.804 151.588 166.937 136.695C166.975 135.781 167.127 134.905 167.241 134.029Z" fill="black"/>
<path d="M217.936 207.119C222.354 203.729 226.734 200.339 231.152 196.95C231.799 196.454 232.447 195.959 233.094 195.464C235.341 196.721 237.665 197.864 240.064 198.816C243.302 200.111 246.006 202.091 248.139 204.834C248.748 206.014 249.281 207.233 249.815 208.452C250.081 209.023 250.424 209.747 249.815 210.204C249.091 210.775 248.52 210.09 248.025 209.633C246.463 208.147 244.978 206.586 243.416 205.1C243.187 204.872 242.959 204.643 242.311 204.681C243.606 206.395 245.054 207.766 246.539 208.985C248.063 210.242 249.548 211.575 250.767 213.099C253.357 216.412 253.966 220.373 249.358 223.534C248.253 224.372 247.377 225.515 246.12 226.124C243.073 227.61 239.798 227.153 237.17 224.791C233.094 221.097 229.057 217.402 225.02 213.708C224.715 213.403 224.334 213.175 223.991 212.908C223.877 212.794 223.725 212.641 223.611 212.527C222.049 211.765 220.944 210.547 220.068 209.061C219.345 208.414 218.659 207.766 217.936 207.119Z" fill="#FD9993"/>
<path d="M199.92 88.6673C194.969 88.7054 190.018 88.7054 185.066 88.7054C171.812 88.7054 158.519 88.7054 145.265 88.7054C142.485 88.7054 142.485 88.7054 142.485 91.3715C142.485 143.742 142.485 196.073 142.485 248.444C142.485 265.316 142.485 282.189 142.485 299.1C142.485 299.938 142.523 300.737 142.523 301.575C142.332 302.223 142.18 302.908 141.723 303.442C141.723 302.794 141.685 302.185 141.685 301.537C141.685 231.152 141.685 160.805 141.685 90.4193C141.685 87.8674 141.685 87.8674 144.199 87.8674C161.604 87.8674 178.972 87.8674 196.378 87.8674C197.216 87.8674 198.016 87.8293 198.854 87.7913C199.273 88.0198 199.692 88.2483 199.92 88.6673Z" fill="#5882AE"/>
<path d="M220.068 209.061C221.249 210.204 222.658 211.156 223.611 212.527C222.354 213.594 221.135 214.698 219.84 215.727C218.583 216.755 217.212 216.793 216.145 215.536C215.079 214.317 215.269 212.946 216.488 211.842C217.593 210.775 218.659 209.671 220.068 209.061Z" fill="#010100"/>
<path d="M155.015 232.675C154.787 236.865 154.482 241.093 153.873 245.244C153.187 245.511 152.806 244.978 152.464 244.559C149.607 241.397 150.14 235.684 153.53 233.056C153.949 232.713 154.368 232.256 155.015 232.675Z" fill="#FDFDFD"/>
<path d="M155.015 232.675C150.178 235.227 149.607 241.626 153.873 245.244C153.873 245.625 153.835 246.006 153.835 246.349C148.388 242.083 148.998 234.58 155.054 231.571C155.054 231.952 155.015 232.294 155.015 232.675Z" fill="#6289B3"/>
<path d="M262.802 144.046C260.936 143.78 259.298 144.884 257.47 144.808C256.67 143.97 256.937 142.904 256.937 141.913C256.937 125.574 256.937 109.196 256.937 92.8568C256.937 92.2094 256.937 91.6 256.937 90.9525C256.899 88.7053 256.785 88.553 254.576 88.553C249.015 88.553 243.416 88.553 237.855 88.553C237.017 88.553 236.217 88.6291 235.418 88.4006C235.113 88.2483 234.846 88.0578 234.808 87.677C234.884 86.839 235.684 86.6486 236.256 86.3058C240.255 83.8682 240.674 79.4882 237.208 76.2889C236.789 75.908 236.256 75.6414 236.179 74.9939C236.522 73.8894 237.436 74.3464 238.122 74.3464C250.31 74.3083 262.498 74.3083 274.648 74.3083C275.219 74.9177 274.914 75.6414 274.952 76.2889C274.952 90.8001 274.952 105.311 274.952 119.823C274.952 120.661 274.99 121.46 275.028 122.298C271.753 129.649 267.83 136.657 263.526 143.437C263.336 143.665 263.069 143.818 262.802 144.046Z" fill="#FEFEFE"/>
<path d="M274.99 214.013C273.467 220.716 271.982 227.457 270.42 234.161C266.992 248.939 263.564 263.679 260.136 278.456C260.098 278.685 260.327 279.142 259.832 279.104C259.679 279.104 259.565 278.723 259.413 278.494C258.537 277.733 258.689 276.628 258.613 275.638C258.042 268.249 257.013 260.898 256.861 253.471C256.899 238.16 256.861 222.849 256.899 207.538C256.899 206.471 256.861 205.405 256.975 204.3C257.965 202.51 258.194 200.758 257.013 198.968C256.823 192.493 256.975 186.018 256.937 179.544C256.937 178.896 256.937 178.249 257.47 177.792C260.289 180.534 263.221 183.048 267.183 184C269.734 184.609 272.286 184.571 274.876 184.685C275.371 185.104 275.486 185.638 275.486 186.247C275.486 194.322 275.638 202.358 275.371 210.432C275.371 211.651 275.257 212.87 274.99 214.013Z" fill="#FEFEFE"/>
<path d="M247.872 204.986C244.482 200.72 239.455 199.121 234.808 196.911C234.123 196.569 233.094 196.607 233.094 195.464C234.351 194.74 233.323 194.207 232.866 193.75C229.247 189.751 225.591 185.79 221.973 181.829C221.744 181.6 221.554 181.372 221.059 180.839C232.333 177.754 243.378 174.745 254.423 171.698C255.185 173.373 255.909 175.049 256.67 176.725C257.127 177.411 257.051 178.172 257.051 178.934C257.051 184.914 257.051 190.894 257.051 196.873C257.051 197.749 257.242 198.663 256.289 199.235C253.661 200.301 251.871 202.548 249.624 204.148C249.129 204.491 248.71 205.214 247.872 204.986Z" fill="#FEFEFE"/>
<path d="M247.872 204.986C249.815 203.386 251.719 201.749 253.661 200.149C254.233 199.654 254.804 199.121 255.604 199.121C256.29 199.006 256.975 198.778 257.47 199.54C258.918 201.33 258.918 202.015 257.47 203.843C257.127 204.224 257.013 204.796 256.594 205.138C254.271 206.662 253.776 208.642 254.042 211.461C254.88 219.421 255.604 227.419 256.137 235.418C256.328 238.198 256.747 240.94 256.861 243.721C257.166 247.034 257.166 250.386 257.394 253.7C258.08 261.965 258.765 270.23 259.451 278.494C259.565 284.36 257.204 289.73 256.213 295.405C256.099 296.053 255.832 295.215 255.604 295.253C254.614 283.903 253.661 272.553 252.671 261.165C251.719 250.386 250.767 239.569 249.815 228.791C249.662 227.039 249.472 225.248 249.32 223.496C249.777 222.963 250.196 222.43 250.653 221.897C253.014 219.231 252.862 215.803 250.157 213.06C247.606 210.509 244.939 208.071 242.388 205.557C241.931 205.138 240.978 204.681 241.778 203.92C242.426 203.31 242.921 204.11 243.34 204.491C245.397 206.433 247.415 208.376 249.777 210.585C249.7 208.223 248.329 206.776 247.872 204.986Z" fill="black"/>
<path d="M264.745 337.339C263.336 340.005 261.926 342.633 260.174 345.109C259.413 344.576 259.298 343.738 259.26 342.938C258.918 337.377 258.27 331.893 257.889 326.332C257.851 325.799 257.889 325.342 258.308 324.961C260.06 325.075 261.812 325.228 263.564 325.342C264.059 325.799 264.25 326.408 264.288 327.056C264.554 330.141 264.897 333.188 265.012 336.273C265.012 336.616 264.897 336.997 264.745 337.339Z" fill="#010101"/>
<path d="M275.79 184.724C277.238 184.762 278.723 184.762 280.17 184.8C281.199 184.838 281.694 185.295 281.465 186.361C279.713 194.436 277.999 202.548 275.828 210.547C275.257 210.052 275.409 209.366 275.409 208.757C275.409 201.33 275.409 193.941 275.409 186.514C275.371 185.904 275.295 185.257 275.79 184.724Z" fill="#FEFEFE"/>
<path d="M264.745 337.339C264.364 333.34 263.945 329.341 263.564 325.342C265.964 325.875 268.516 325.304 270.839 326.332C270.268 327.551 269.734 328.808 269.163 330.027C267.678 332.426 266.23 334.864 264.745 337.339Z" fill="#FDFDFD"/>
<path d="M258.308 324.923C258.918 331.664 259.565 338.368 260.174 345.109C259.336 346.671 258.499 348.194 257.623 349.756C256.975 349.337 257.089 348.651 257.089 348.042C257.089 340.843 257.089 333.683 257.089 326.484C257.089 325.913 257.051 325.342 257.47 324.885C257.775 324.885 258.042 324.923 258.308 324.923Z" fill="#FDFDFD"/>
<path d="M307.86 163.585C308.126 163.776 308.355 164.004 308.622 164.195C308.507 165.109 307.86 165.032 307.212 164.994C301.88 164.69 296.586 164.385 291.254 164.08C290.72 164.042 289.921 164.118 289.921 163.357C289.921 162.366 290.759 162.595 291.33 162.633C296.853 162.938 302.337 163.242 307.86 163.585Z" fill="#020405"/>
<path d="M287.597 152.007C287.064 155.244 286.645 158.519 285.96 161.719C285.579 163.547 283.941 162.481 282.951 162.404C281.694 162.29 282.456 161.376 282.722 160.843C284.208 157.643 285.731 154.406 287.255 151.207C287.94 151.245 287.712 151.626 287.597 152.007Z" fill="#FB9A95"/>
<path d="M275.79 184.724C275.79 193.331 275.79 201.939 275.828 210.547C275.676 211.727 275.6 212.946 275.028 214.013C274.99 205.253 274.99 196.531 274.952 187.77C274.952 186.742 274.952 185.752 274.914 184.724C275.181 184.762 275.486 184.762 275.79 184.724Z" fill="#5882AE"/>
<path d="M257.508 324.885C257.508 332.731 257.47 340.577 257.508 348.423C257.508 348.842 257.623 349.299 257.661 349.718C257.356 350.175 257.051 350.632 256.747 351.089C256.709 342.367 256.708 333.607 256.67 324.885C256.937 324.885 257.204 324.885 257.508 324.885Z" fill="#5881AE"/>
<path d="M257.47 199.501C256.861 199.349 256.213 199.235 255.604 199.082C256.67 198.892 256.67 198.092 256.67 197.254C256.67 190.399 256.708 183.581 256.708 176.725C257.204 176.954 257.432 177.373 257.47 177.868C257.47 185.104 257.47 192.303 257.47 199.501Z" fill="#5881AE"/>
<path d="M287.597 152.007C287.483 151.74 287.369 151.511 287.255 151.245C287.369 150.902 287.407 150.521 287.826 150.331C288.054 150.94 287.978 151.511 287.597 152.007Z" fill="#DCA0A4"/>
<path d="M353.488 230.771C354.25 230.733 355.012 230.657 355.774 230.657C397.593 230.657 439.413 230.657 481.233 230.657C483.785 230.657 483.785 230.657 483.785 233.209C483.785 239.112 483.747 245.016 483.823 250.919C483.861 252.405 483.442 252.824 481.919 252.824C440.937 252.785 399.917 252.785 358.935 252.785C358.821 252.785 358.668 252.785 358.554 252.824C356.84 245.473 355.164 238.122 353.488 230.771Z" fill="#FEFEFE"/>
<path d="M360.23 260.441C360.306 259.489 361.03 259.641 361.639 259.641C362.972 259.641 364.305 259.641 365.638 259.641C404.221 259.641 442.803 259.641 481.386 259.603C483.29 259.603 483.823 260.06 483.785 262.003C483.633 267.792 483.747 273.543 483.747 279.332C483.747 281.808 483.747 281.808 481.347 281.808C441.813 281.808 402.278 281.808 362.744 281.808C361.906 281.808 361.106 281.846 360.268 281.846C359.963 280.704 360.077 279.599 360.192 278.456C360.306 273.695 360.42 268.973 360.534 264.212C360.611 262.955 360.573 261.698 360.23 260.441Z" fill="#FEFEFE"/>
<path d="M326.789 392.756C322.714 390.09 318.6 387.5 314.563 384.758C313.344 383.92 312.468 383.806 311.211 384.72C308.126 386.929 304.927 388.986 301.804 391.119C300.776 386.967 299.138 383.044 297.081 379.312C296.586 378.397 296.51 377.369 296.51 376.379C296.51 366.171 296.51 356.002 296.51 345.795C296.51 344.728 296.586 343.624 297.043 342.633C297.119 342.329 297.233 341.986 297.31 341.681C302.642 332.464 308.126 323.285 313.002 313.801C313.649 313.268 314.411 313.268 315.173 313.268C319.057 313.268 322.904 313.268 326.789 313.268C329.151 313.268 329.531 313.649 329.531 316.087C329.493 327.627 329.722 339.168 329.341 350.708C329.265 353.298 329.417 355.888 329.074 358.478C329.227 369.523 327.741 380.454 327.018 391.461C327.018 391.88 326.865 392.299 326.789 392.756Z" fill="#FEFEFE"/>
<path d="M360.001 284.436C360.077 282.875 360.915 282.57 362.439 282.57C384.758 282.646 407.077 282.646 429.434 282.57C431.11 282.57 431.72 282.913 431.682 284.703C431.567 291.406 431.567 298.148 431.682 304.889C431.72 306.489 431.263 306.908 429.663 306.908C407.077 306.87 384.491 306.87 361.906 306.87C361.144 306.87 360.382 306.87 359.62 306.908C359.735 299.404 359.849 291.939 360.001 284.436Z" fill="#FEFEFE"/>
<path d="M315.63 306.565C318.181 297.271 317.229 287.826 317.077 278.38C316.886 265.583 316.582 252.785 316.315 239.988C316.125 230.923 315.972 221.859 315.706 212.794C315.668 211.423 316.01 211.004 317.42 210.851C318.791 210.699 319.362 210.813 319.705 212.375C323.628 230.238 327.665 248.063 331.664 265.926C332.236 268.554 331.817 271.22 331.779 273.886C331.626 284.779 331.436 295.672 331.245 306.603C330.864 307.022 330.369 307.098 329.874 307.098C325.304 307.06 320.771 307.288 316.201 306.984C315.972 306.908 315.782 306.755 315.63 306.565Z" fill="#6842C2"/>
<path d="M359.544 307.745C393.937 307.745 428.33 307.746 462.723 307.707C469.121 307.707 475.558 307.745 481.957 307.669C483.29 307.669 483.861 307.898 483.823 309.421C483.747 312.697 483.823 312.697 480.471 312.697C441.127 312.697 401.783 312.697 362.477 312.697C359.735 312.697 359.735 312.697 359.468 310.031C359.468 309.269 359.506 308.507 359.544 307.745Z" fill="#FEFEFE"/>
<path d="M331.283 307.746C331.283 308.012 331.283 308.279 331.321 308.545C331.017 309.536 331.169 310.564 331.207 311.554C331.245 312.735 330.674 313.192 329.646 313.192C324.847 313.268 320.048 313.268 315.249 313.192C314.563 313.192 313.611 313.154 313.801 311.973C314.335 310.526 314.83 309.117 315.363 307.669C315.934 307.174 316.62 307.174 317.343 307.174C321.343 307.174 325.38 307.174 329.379 307.174C330.026 307.212 330.75 307.174 331.283 307.746Z" fill="#FCFDFD"/>
<path d="M313.801 311.973C313.839 312.697 314.335 312.697 314.868 312.697C319.857 312.697 324.847 312.659 329.836 312.697H330.788C330.826 321.762 330.484 334.216 330.026 343.471C329.95 344.5 330.179 345.566 329.912 346.595C329.836 350.556 329.608 354.517 329.112 358.478L329.111 358.371C329.074 354.789 329.036 351.244 329.036 347.661C329.036 337.035 328.998 326.408 329.074 315.744C329.074 314.03 328.579 313.649 326.941 313.687C322.333 313.801 317.686 313.763 313.078 313.801C313.306 313.154 313.306 312.468 313.801 311.973Z" fill="#5881AD"/>
<path d="M331.283 307.746C325.951 307.707 320.657 307.707 315.325 307.669C315.325 307.288 315.287 306.87 315.591 306.565C315.668 306.527 315.744 306.527 315.82 306.565C317.991 306.984 320.2 306.679 322.371 306.755C325.304 306.87 328.274 306.565 331.207 306.908C331.283 307.212 331.283 307.479 331.283 307.746Z" fill="#5881AD"/>
<path d="M331.245 306.946C326.561 306.946 321.876 306.984 317.191 306.946C316.734 306.946 316.163 307.174 315.858 306.565C321 306.565 326.142 306.565 331.283 306.565C331.321 306.717 331.321 306.831 331.245 306.946Z" fill="#9ABCD7"/>
<path d="M360.23 278.456C360.268 279.599 360.268 280.704 360.306 281.846C359.658 280.742 359.963 279.599 360.23 278.456Z" fill="#5A83AF"/>
<path d="M296.129 377.979C293.234 373.522 289.578 369.79 285.198 366.819C284.512 366.324 283.865 366.019 284.512 364.915C288.397 358.059 292.206 351.127 296.015 344.233C296.053 344.119 296.205 344.081 296.281 343.967C296.853 344.538 296.7 345.262 296.7 345.947C296.7 355.926 296.7 365.905 296.7 375.884C296.7 376.607 296.929 377.445 296.129 377.979Z" fill="#FDFDFD"/>
<path d="M296.129 377.979C296.205 377.674 296.319 377.369 296.319 377.064C296.319 366.057 296.281 355.012 296.281 344.005C296.319 343.433 296.662 342.976 297.081 342.633C297.119 351.203 297.157 359.735 297.157 368.304C297.157 371.961 297.119 375.655 297.081 379.312C296.776 378.855 296.472 378.397 296.129 377.979Z" fill="#5881AE"/>
<path d="M307.327 65.9673C306.755 65.4722 307.022 64.7866 307.022 64.1772C307.022 53.589 307.06 43.0007 306.984 32.3743C306.984 30.8128 307.479 30.5081 308.926 30.5081C370.209 30.5461 431.529 30.5461 492.812 30.5081C494.373 30.5081 494.83 30.8889 494.83 32.4886C494.792 72.6707 494.792 112.815 494.83 152.997C494.83 154.863 494.069 154.977 492.621 154.977C441.775 154.939 390.966 154.939 340.12 154.939C340.158 148.198 340.234 141.494 340.272 134.753C340.958 134.144 341.834 134.258 342.633 134.258C346.061 134.258 349.489 134.258 352.917 134.258C355.126 134.258 355.164 134.22 355.164 132.049C355.164 124.203 355.164 116.319 355.164 108.473C355.164 103.293 355.126 98.0749 355.202 92.8951C355.24 91.3335 354.707 90.8003 353.107 90.8003C348.499 90.8764 343.852 90.8384 339.206 90.8003C338.33 90.8003 337.416 90.9526 336.616 90.4194C335.816 89.1244 335.892 87.7914 336.501 86.4583C337.225 85.8108 338.177 85.9632 339.015 85.9632C343.738 85.9251 348.499 85.9632 353.222 85.9632C353.907 85.9632 354.783 86.1155 354.974 85.2395C355.24 84.2112 355.355 83.0685 354.86 82.0783C354.555 81.507 353.831 81.7355 353.298 81.7355C348.499 81.7355 343.7 81.7355 338.901 81.7355C337.834 81.7355 336.692 81.8117 336.121 80.5929C336.006 80.4024 335.892 80.212 335.816 79.9835C335.587 79.2217 335.245 78.46 335.93 77.7363C339.51 76.746 340.501 73.1658 338.177 69.5095C336.501 66.9195 333.835 65.7769 331.055 64.7866C326.027 63.0346 320.924 64.0249 315.82 64.2534C312.963 64.3677 310.107 65.0913 307.327 65.9673Z" fill="#FEFEFE"/>
<path d="M336.692 90.9907C334.673 98.6462 328.541 100.398 321.838 101.35C321.343 103.978 321.8 106.683 321.571 109.311C321.152 110.072 321.228 110.91 321.228 111.71C321.228 115.633 321.266 119.518 321.19 123.441C321.19 124.203 321.571 125.307 320.276 125.574C320.276 120.851 320.238 116.09 320.314 111.367C320.352 110.034 320.086 109.463 318.6 109.539C315.401 109.692 312.164 109.653 308.926 109.653C308.85 109.615 308.812 109.539 308.774 109.463C308.012 107.216 307.898 105.007 308.888 102.798C311.668 103.102 314.411 103.407 317.496 102.531C314.639 99.3318 311.897 96.2848 309.079 93.1617C310.297 92.6284 311.44 92.2095 312.468 91.6382C315.706 89.9242 317.724 87.22 317.534 83.5637C317.115 75.5653 321.228 70.3093 327.36 66.0435C328.313 65.396 329.036 65.4341 329.95 65.8911C333.492 67.6432 334.94 70.7282 335.435 74.4608C335.587 75.5272 335.74 76.5937 335.892 77.6601C335.968 78.2695 336.044 78.917 336.159 79.5264C335.816 80.0215 334.787 79.6787 334.826 80.5548C334.902 81.3927 335.778 81.088 336.273 81.3546C336.616 81.545 336.768 81.8878 336.844 82.2687C337.073 83.4113 337.149 84.5158 337.035 85.6585C336.997 85.9632 336.844 86.1917 336.692 86.4583C336.654 87.6771 336.654 88.8959 336.616 90.1147C336.92 90.4575 336.92 90.7241 336.692 90.9907Z" fill="#FD9993"/>
<path d="M320.314 125.65C320.924 125.155 320.657 124.469 320.657 123.898C320.695 119.747 320.657 115.557 320.695 111.405C320.695 110.72 320.352 109.806 321.419 109.501C321.609 109.501 321.723 109.577 321.8 109.73C321.838 114.529 321.914 119.366 321.876 124.165C321.876 125.384 322.142 125.764 323.437 125.764C327.398 125.879 329.76 128.354 329.76 132.315C329.798 138.524 329.798 144.732 329.76 150.978C329.76 154.254 327.703 156.767 324.77 157.263C324.161 157.377 323.209 157.72 323.057 156.729C322.904 155.853 323.818 155.93 324.428 155.815C326.827 155.32 328.313 153.644 328.313 151.169C328.351 144.77 328.351 138.371 328.313 131.935C328.274 129.154 326.37 127.326 323.628 127.25C321.8 127.212 319.933 127.212 318.105 127.25C315.553 127.326 313.573 129.078 313.535 131.63C313.459 138.219 313.459 144.808 313.535 151.435C313.573 153.759 315.134 155.396 317.496 155.853C318.105 155.968 318.981 155.891 318.753 156.806C318.562 157.643 317.724 157.377 317.115 157.301C314.335 156.92 312.087 154.482 312.049 151.473C311.973 144.884 311.935 138.295 312.049 131.668C312.087 128.354 314.715 125.917 318.067 125.726C318.791 125.688 319.552 125.65 320.314 125.65Z" fill="#FDFDFC"/>
<path d="M336.692 90.9906C336.692 90.724 336.73 90.4193 336.73 90.1527C342.481 90.1527 348.27 90.1908 354.021 90.1527C355.278 90.1527 355.774 90.4574 355.774 91.8286C355.735 105.578 355.735 119.328 355.774 133.039C355.774 134.448 355.202 134.715 353.983 134.715C349.413 134.677 344.881 134.753 340.31 134.753C340.12 131.973 340.158 129.192 340.386 126.412C340.386 128.392 340.462 130.335 340.424 132.315C340.386 133.344 340.691 133.763 341.795 133.763C345.718 133.687 349.68 133.687 353.603 133.763C354.745 133.763 354.974 133.344 354.974 132.315C354.936 119.061 354.936 105.807 354.974 92.5522C354.974 91.1811 354.402 91.0287 353.26 91.0287C347.699 91.0287 342.214 90.9906 336.692 90.9906Z" fill="#5A84B0"/>
<path d="M321.8 109.691C321.685 109.615 321.533 109.539 321.419 109.463C321.419 107.33 321.419 105.197 321.495 103.102C321.495 102.531 321.19 101.845 321.876 101.388C321.876 103.521 321.952 105.692 321.876 107.825C321.838 109.006 322.257 109.349 323.399 109.311C326.256 109.234 329.074 109.273 331.931 109.311C332.54 109.311 333.188 109.082 333.759 109.577C333.95 110.377 334.026 111.139 333.683 111.901C333.569 111.786 333.416 111.71 333.302 111.596C332.959 111.329 332.921 110.758 332.464 110.567C331.74 110.491 331.055 110.149 330.331 110.339C327.513 109.349 324.618 109.615 321.8 109.691Z" fill="#5882AE"/>
<path d="M330.255 110.377C331.093 109.768 332.007 110.187 332.883 110.072C332.997 110.225 332.997 110.377 332.921 110.529C332.578 110.91 332.083 110.568 331.702 110.796C331.245 110.682 330.75 110.529 330.255 110.377Z" fill="#D5D7DC"/>
<path d="M333.645 111.901C333.683 111.139 333.683 110.339 333.721 109.577C334.254 110.377 333.949 111.215 333.949 112.053C333.797 112.053 333.683 112.015 333.645 111.901Z" fill="#6387AF"/>
<path d="M332.921 110.453C332.959 110.339 332.959 110.225 332.883 110.11C333.416 110.529 333.188 111.101 333.226 111.634C332.997 111.558 332.807 111.444 332.578 111.367C332.502 110.986 332.616 110.682 332.921 110.453Z" fill="#6387AF"/>
<path d="M332.921 110.453C333.035 110.834 332.959 111.139 332.616 111.367C332.312 111.177 332.045 111.025 331.74 110.834C332.007 110.377 332.502 110.491 332.921 110.453Z" fill="#FBF9F8"/>
<path d="M64.7483 342.1C75.6794 342.1 86.5723 342.138 97.5034 342.062C99.065 342.062 99.522 342.443 99.522 344.043C99.4459 354.517 99.522 364.991 99.4839 375.465C99.4459 386.091 90.9524 394.546 80.3641 394.623C69.9663 394.661 59.5304 394.661 49.1325 394.623C38.849 394.585 30.2793 386.205 30.127 375.922C29.9746 365.181 30.127 354.479 30.0508 343.738C30.0508 342.367 30.5078 342.062 31.8028 342.062C42.7719 342.1 53.7792 342.1 64.7483 342.1Z" fill="#EFE4BC"/>
<path d="M33.593 216.679C27.08 217.783 21.1003 220.716 14.7778 222.506C14.7778 222.658 14.7778 222.849 14.8159 223.039C18.0153 223.382 21.1765 223.763 24.3758 223.992C31.9171 224.563 37.9349 229.4 39.268 236.218C40.2202 240.978 41.0581 245.777 41.9722 250.576C43.0005 255.794 43.4957 261.203 45.1715 266.192C49.7801 280.132 54.8838 293.92 59.8351 307.746C60.0256 308.203 59.9875 308.85 60.673 309.117C61.3205 308.431 61.968 307.822 62.5012 307.136C65.0912 303.67 68.519 300.966 70.5377 296.853C74.3845 288.968 78.7645 281.275 83.1446 273.657C86.3439 268.097 91.4095 265.621 97.8463 266.154C100.208 266.345 102.531 266.687 104.892 266.992C102.874 264.973 100.741 263.183 98.4938 261.584C92.2474 257.089 85.5822 256.48 79.0692 260.479C73.8513 263.679 68.6714 267.03 65.1293 272.324C63.2249 275.143 60.9397 277.695 58.8068 280.399C58.5021 280.78 58.3116 281.313 57.588 281.122C57.4356 280.437 57.9688 280.094 58.3116 279.675C61.0539 276.171 63.7581 272.667 66.5385 269.201C67.4145 268.097 67.9096 266.954 68.1762 265.621C71.109 250.957 74.156 236.332 77.0125 221.668C77.8885 217.06 79.3739 212.87 82.8018 209.556C83.4873 208.871 84.0967 208.147 84.7061 207.424L84.7061 207.424C86.1915 205.71 87.715 203.958 89.2004 202.206C86.7248 202.929 84.5157 203.958 82.3447 205.062C77.0125 207.804 73.1276 211.994 70.9185 217.555C68.062 224.715 65.2435 231.914 63.5296 239.493C63.3392 240.369 63.3011 241.397 62.3489 242.121C61.8918 240.978 62.5393 240.102 62.7298 239.188C63.72 234.846 65.3197 230.657 65.1674 226.01C64.8246 215.955 64.8246 205.862 64.7103 195.769C64.6722 194.436 64.6722 193.141 64.9769 191.808C66.31 185.866 68.4809 180.153 70.1568 174.326C70.8043 172.155 71.4898 169.984 72.1754 167.698C71.1851 167.889 70.9566 168.574 70.5757 169.032C67.9096 172.497 65.3578 176.04 62.5774 179.429C57.7403 185.333 55.6074 192.074 55.6455 199.654C55.7217 212.223 55.7217 224.791 55.6455 237.36C55.6074 242.312 55.6836 247.225 57.1309 252.024C57.588 253.509 57.8927 255.071 58.1974 256.632C58.2735 257.127 58.5402 257.699 57.9688 258.194C57.3214 257.47 57.2833 256.709 57.169 255.985C55.2647 245.359 51.3036 235.303 47.7995 225.134C45.7809 219.307 39.6489 215.65 33.593 216.679Z" fill="#2DBE8A"/>
<path d="M64.7485 316.963C75.6795 316.963 86.5725 317.001 97.5035 316.925C99.1032 316.925 99.5222 317.344 99.5222 318.943C99.446 325.799 99.446 332.655 99.5222 339.51C99.5222 340.92 99.1794 341.339 97.7321 341.3C75.7938 341.262 53.8174 341.262 31.8791 341.3C30.4699 341.3 30.0509 340.958 30.089 339.51C30.1652 332.578 30.1652 325.685 30.089 318.753C30.0509 317.115 30.6984 316.925 32.0696 316.925C42.9244 317.001 53.8555 316.963 64.7485 316.963Z" fill="#93C8D3"/>
<path d="M4.11353 271.372C7.16051 269.049 10.0552 266.84 12.9879 264.631C15.5016 262.726 18.0535 260.822 20.5672 258.918C29.0607 252.557 40.2584 255.756 43.8767 265.735C49.7421 281.922 55.4552 298.186 61.2445 314.411C61.7777 315.896 61.5111 316.239 59.9495 316.163C57.4738 316.049 54.9982 316.049 52.5225 316.163C50.9609 316.239 50.2373 315.782 49.7802 314.22C46.2 302.451 42.5055 290.759 38.8492 279.028C35.8022 269.239 26.0518 264.288 16.3396 267.563C12.9879 268.706 9.63619 269.887 6.28451 271.029C5.67511 271.22 5.1038 271.677 4.11353 271.372Z" fill="#31C752"/>
<path d="M107.139 314.563C102.798 311.478 98.4556 308.431 94.1136 305.346C90.0764 302.489 86.4962 302.756 83.0302 306.222C80.0975 309.155 77.1648 312.049 74.3082 314.982C73.5465 315.782 72.7847 316.163 71.6421 316.125C69.1665 316.049 66.6908 316.049 64.2151 316.125C63.1867 316.163 62.7678 315.782 62.2726 314.868C60.5587 311.668 61.2443 309.383 63.8342 306.831C68.0619 302.642 71.8706 298.033 75.7936 293.539C82.1923 286.15 91.9807 286.988 96.8178 295.481C100.398 301.728 103.902 308.05 107.406 314.335C107.33 314.373 107.216 314.487 107.139 314.563Z" fill="#3C9D45"/>
<path d="M216.412 108.206C218.393 108.815 220.526 108.32 222.506 109.006C221.973 132.658 221.402 156.272 220.868 179.924C220.069 180.153 219.878 179.429 219.535 179.086C214.279 173.411 209.061 167.698 203.805 162.023C202.891 161.071 202.434 159.967 202.129 158.71C197.711 141.609 193.217 124.545 188.761 107.444C188.646 106.949 188.608 106.454 188.532 105.959C192.874 106.302 197.178 106.644 201.52 106.987C206.433 107.482 211.385 108.054 216.412 108.206Z" fill="black"/>
<path d="M235.775 75.0213C238.517 76.5448 240.041 78.792 239.545 82.0294C239.126 84.8479 237.336 86.5999 234.594 87.3616C233.642 88.0472 232.537 87.7425 231.509 87.7425C231.014 87.6663 230.557 87.4759 230.1 87.2474C229.148 86.638 228.157 86.0286 227.548 85.0383C227.091 84.3146 226.634 84.3527 226.024 84.8859C225.072 85.762 224.044 86.4475 222.711 86.5237C222.635 86.5237 222.52 86.4856 222.444 86.4856C217.912 86.4475 215.055 84.2004 214.827 80.5059C214.636 77.497 216.35 74.8309 219.169 73.8787C222.101 72.8884 225.072 73.9168 226.786 76.5829C227.015 76.9638 227.243 77.3066 227.51 77.8017C229.338 74.9832 231.89 74.2215 234.937 74.7166C235.242 74.8309 235.508 74.9452 235.775 75.0213Z" fill="#010101"/>
<path d="M230.504 86.8391C230.847 86.9915 231.19 87.1057 231.495 87.2581C232.485 87.6009 233.589 87.639 234.542 88.1341C234.846 88.3245 235.189 88.4769 235.341 88.8197C236.598 89.9242 238.35 90.0385 239.95 91.0668C237.893 92.5141 235.684 92.9331 233.361 92.9712C231.38 92.5522 229.4 92.0571 227.838 90.6479C227.153 90.0385 226.619 90.1908 225.82 90.5717C222.125 92.476 218.507 92.0571 215.041 89.848C214.66 89.6195 214.127 89.391 214.203 88.9339C214.279 88.4007 214.889 88.515 215.269 88.4007C217.745 87.7151 220.335 87.6009 222.696 86.4963H222.658C223.039 86.1916 223.534 86.4202 223.915 86.1916C226.391 84.7824 228.486 85.3918 230.504 86.8391Z" fill="#ECE9E9"/>
<path d="M307.555 87.2581C307.555 88.8197 307.517 90.4194 307.555 91.981C307.555 92.8189 307.288 93.1617 306.45 92.8189C306.031 92.6665 305.613 92.5142 305.194 92.3618C302.108 91.1811 300.471 89.0102 300.814 86.4964C301.156 84.135 303.784 81.9259 306.641 81.507C307.555 81.3927 307.555 81.8497 307.555 82.4591C307.555 84.135 307.555 85.6966 307.555 87.2581Z" fill="#FB9892"/>
<path d="M307.288 102.417C306.641 104.816 307.098 107.254 307.022 109.653C306.679 109.653 306.374 109.615 306.184 109.311C306.184 106.911 306.184 104.512 306.184 102.112C306.603 102.15 306.984 102.112 307.288 102.417Z" fill="#5780AC"/>
<path d="M474.187 394.242C469.236 390.966 464.513 387.919 459.866 384.72C458.609 383.844 457.733 383.882 456.514 384.72C452.02 387.881 447.45 390.966 442.879 394.089C442.27 393.556 442.536 392.947 442.536 392.452C442.536 366.895 442.536 341.338 442.498 315.782C442.498 314.106 442.917 313.649 444.593 313.687C453.925 313.763 463.256 313.763 472.549 313.687C473.844 313.687 474.301 313.992 474.301 315.363C474.263 341.3 474.263 367.238 474.263 393.175C474.301 393.404 474.225 393.67 474.187 394.242Z" fill="#FEFEFE"/>
<path d="M96.1325 74.0419C96.1325 89.5053 83.4494 102.112 67.986 102.036C52.6749 101.96 40.0299 89.2387 40.068 73.9276C40.106 58.4642 52.7891 45.7811 68.2145 45.8192C83.6779 45.8573 96.1325 58.4642 96.1325 74.0419Z" fill="#FEFEFE"/>
<path d="M235.38 88.7815C235.113 88.6673 234.884 88.553 234.618 88.4387C234.389 88.0579 234.656 87.9436 234.961 87.8674C241.816 87.8674 248.634 87.9055 255.49 87.8293C257.051 87.8293 257.508 88.2102 257.508 89.8099C257.47 108.168 257.47 126.488 257.47 144.808C257.242 145.075 256.975 145.113 256.632 145.075C256.632 126.983 256.594 108.892 256.67 90.8382C256.67 89.1624 256.29 88.7054 254.576 88.7434C248.215 88.8196 241.778 88.7815 235.38 88.7815Z" fill="#5982AF"/>
<path d="M234.961 87.9055C234.846 88.096 234.732 88.2864 234.618 88.4769C233.513 88.2864 232.485 87.8675 231.533 87.2581C232.675 87.2961 233.818 87.2961 234.961 87.3342C234.961 87.4866 234.961 87.7151 234.961 87.9055Z" fill="#D58782"/>
<path d="M257.394 253.7C257.051 250.386 256.747 247.034 256.404 243.721C256.67 239.988 256.099 236.294 256.099 232.561C256.061 224.106 256.099 215.612 256.099 207.157C256.099 206.243 256.175 205.405 256.67 204.605C256.937 204.339 257.204 204.072 257.47 203.843C257.47 220.145 257.508 236.484 257.508 252.786C257.508 253.09 257.432 253.395 257.394 253.7Z" fill="#5881AE"/>
<path d="M256.67 204.605C256.67 216.831 256.67 229.057 256.632 241.283C256.632 242.083 256.823 242.921 256.404 243.721C255.452 232.79 254.69 221.859 253.433 210.966C253.052 207.69 254.157 205.976 256.67 204.605Z" fill="#FAFBFC"/>
<path d="M408.372 112.548C408.372 105.692 408.41 98.8366 408.334 91.9809C408.334 90.5717 408.715 90.1527 410.162 90.1527C420.636 90.1908 431.11 90.1908 441.584 90.1527C442.955 90.1527 443.298 90.6098 443.298 91.9047C443.26 105.54 443.26 119.175 443.298 132.849C443.298 134.22 442.917 134.753 441.47 134.753C431.072 134.715 420.674 134.715 410.238 134.753C408.715 134.753 408.334 134.182 408.334 132.734C408.41 125.993 408.372 119.251 408.372 112.548Z" fill="#6189B3"/>
<path d="M363.658 107.939C363.658 99.6364 363.696 91.2953 363.62 82.9923C363.62 81.583 364 81.1641 365.41 81.1641C375.807 81.2402 386.243 81.2021 396.641 81.1641C397.974 81.1641 398.355 81.5449 398.355 82.878C398.317 99.5602 398.317 116.242 398.355 132.963C398.355 134.258 398.012 134.753 396.641 134.753C386.243 134.715 375.807 134.715 365.41 134.753C363.962 134.753 363.581 134.296 363.581 132.887C363.696 124.546 363.658 116.242 363.658 107.939Z" fill="#5C85B0"/>
<path d="M452.782 112.358C452.782 105.578 452.82 98.7604 452.744 91.9809C452.744 90.6098 453.049 90.1146 454.534 90.1146C464.932 90.1908 475.33 90.1908 485.766 90.1146C487.251 90.1146 487.556 90.6098 487.556 91.9809C487.518 105.616 487.518 119.251 487.556 132.925C487.556 134.41 487.022 134.715 485.689 134.715C475.33 134.677 465.008 134.677 454.648 134.715C453.087 134.715 452.744 134.144 452.782 132.734C452.82 125.955 452.782 119.175 452.782 112.358Z" fill="#5A83AF"/>
<path d="M425.892 86.4963C420.712 86.4963 415.494 86.4582 410.315 86.5344C408.867 86.5725 408.296 86.1916 408.334 84.6681C408.448 80.6308 407.991 81.2021 411.762 81.2021C421.512 81.1641 431.263 81.2402 441.013 81.1641C442.765 81.1641 443.336 81.6211 443.26 83.4112C443.108 87.1057 443.641 86.4963 440.137 86.5344C435.376 86.5344 430.653 86.4963 425.892 86.4963Z" fill="#6188B3"/>
<path d="M394.204 57.093C388.948 57.093 383.692 57.0549 378.435 57.1311C377.102 57.1311 376.683 56.674 376.683 55.379C376.683 51.7607 376.645 51.7607 380.264 51.7607C389.976 51.7607 399.65 51.7988 409.362 51.7227C411.076 51.7227 411.876 52.1035 411.61 53.9317C411.533 54.4269 411.571 54.9601 411.61 55.4552C411.724 56.7883 411.114 57.1691 409.781 57.1691C404.601 57.0549 399.384 57.093 394.204 57.093Z" fill="#6189B3"/>
<path d="M470.15 81.2022C475.291 81.2022 480.433 81.2403 485.575 81.1641C487.022 81.126 487.594 81.4688 487.517 83.0304C487.403 86.4964 487.518 86.4964 483.975 86.4964C474.263 86.4964 464.551 86.4583 454.877 86.5344C453.277 86.5344 452.63 86.2678 452.706 84.4777C452.858 81.1641 452.744 81.1641 456.057 81.1641C460.78 81.2022 465.465 81.2022 470.15 81.2022Z" fill="#6188B3"/>
<path d="M426.464 57.0929C423.607 57.0929 420.751 57.0548 417.894 57.131C416.675 57.1691 416.218 56.7121 416.256 55.4933C416.37 50.9228 415.685 51.8369 419.913 51.7988C424.94 51.7226 429.93 51.8369 434.957 51.7607C436.214 51.7607 436.595 52.1035 436.557 53.3604C436.442 57.9689 437.09 57.0548 432.9 57.131C430.806 57.131 428.635 57.0929 426.464 57.0929Z" fill="#6188B3"/>
<path d="M336.806 86.4963C336.806 86.2297 336.806 85.9631 336.806 85.6965C337.606 84.9728 338.596 85.1633 339.51 85.1252C343.548 85.0871 347.585 85.1252 351.66 85.1252C352.308 85.1252 352.917 85.1633 353.526 84.9728C354.022 84.8205 354.25 84.4777 354.25 83.9826C354.25 83.4874 354.022 83.1446 353.526 83.0304C352.917 82.878 352.27 82.878 351.622 82.878C347.509 82.878 343.395 82.878 339.282 82.878C338.368 82.878 337.339 83.1066 336.692 82.1544C336.578 81.9258 336.425 81.7354 336.311 81.5069C335.892 80.9737 335.892 80.4785 336.425 80.0215C336.73 80.9356 337.339 81.2403 338.33 81.2022C343.509 81.126 348.727 81.2022 353.907 81.126C355.24 81.126 355.812 81.3545 355.774 82.878C355.697 86.4963 355.774 86.4963 352.193 86.4963C347.052 86.4963 341.91 86.4963 336.806 86.4963Z" fill="#638AB3"/>
<path d="M336.387 80.0215C336.349 80.5166 336.311 81.0118 336.273 81.5069C335.587 81.8116 334.94 81.964 334.407 81.3165C334.026 80.8975 334.064 80.3643 334.369 79.9072C334.864 79.1074 335.549 79.4121 336.197 79.6025C336.273 79.7168 336.311 79.8692 336.387 80.0215Z" fill="#1F1514"/>
<path d="M336.692 81.8878C342.062 81.8878 347.432 81.9259 352.803 81.8878C354.174 81.8878 354.974 81.9259 355.012 83.716C355.012 85.5061 354.174 85.4299 352.917 85.4299C347.547 85.3919 342.176 85.4299 336.806 85.4299C336.768 84.2873 336.73 83.1066 336.692 81.8878Z" fill="#FDFDFE"/>
<path d="M323.78 81.126C323.704 81.8116 323.209 82.1925 322.485 82.1163C321.876 82.0401 321.419 81.6212 321.419 80.9356C321.419 80.1738 321.952 79.7549 322.638 79.7549C323.399 79.793 323.818 80.2881 323.78 81.126Z" fill="#150D0C"/>
<path d="M221.668 84.9347C218.812 84.9347 216.641 82.7256 216.679 79.831C216.717 77.0506 218.85 74.9177 221.668 74.9177C224.449 74.9177 226.62 77.0506 226.658 79.7929C226.696 82.7256 224.525 84.9347 221.668 84.9347Z" fill="#FD9993"/>
<path d="M234.999 85.6584C232.752 86.3059 230.619 85.6203 229.4 83.7921C228.181 82.002 228.257 79.6787 229.514 77.9648C230.961 76.0604 233.018 75.5272 235.722 76.4413C235.989 78.1171 236.217 79.7549 235.532 81.3926C234.77 81.9259 234.77 81.0879 234.504 80.7832C234.275 80.5547 234.123 80.2881 233.742 80.4785C233.628 80.5547 233.551 80.6309 233.551 80.7832C233.513 81.1641 233.742 81.3545 234.046 81.4307C234.58 81.6212 235.189 81.6212 235.38 82.2686C235.57 83.4874 235.799 84.6301 234.999 85.6584Z" fill="#FC9993"/>
<path d="M230.504 86.8391C227.991 85.3156 225.363 86.2297 222.773 86.4583C224.449 85.7346 226.162 85.1252 227.229 83.0685C228.181 84.7062 229.133 85.9631 230.504 86.8391Z" fill="#F39690"/>
<path d="M81.0118 86.0392C78.6504 83.9444 76.5556 82.0782 74.4608 80.2119C73.4705 79.3359 72.4802 78.4599 71.49 77.5458C70.5378 76.6317 69.6237 75.7937 68.0621 76.2127C67.148 76.4793 66.3482 75.7937 65.9673 74.9177C65.5483 73.9275 65.5864 72.7468 66.5767 72.1755C67.7193 71.528 67.6812 70.652 67.6812 69.6236C67.6812 65.1293 67.6812 60.635 67.6812 56.1407C67.6812 55.4932 67.4146 54.7696 68.0621 54.1221C68.7477 54.6553 68.4811 55.379 68.4811 55.9883C68.5191 60.4827 68.4811 64.977 68.4811 69.4713C68.4811 69.8521 68.3287 70.4234 68.5191 70.5758C70.2712 72.1374 69.8903 74.8416 71.49 76.3651C74.3465 79.0693 77.3173 81.6592 80.212 84.2872C80.669 84.63 81.2022 84.8204 81.0118 86.0392Z" fill="#5A83AF"/>
<path d="M409.362 112.358C409.362 105.883 409.401 99.408 409.324 92.9712C409.324 91.562 409.553 90.9907 411.153 91.0288C420.903 91.1049 430.691 91.1049 440.442 91.0288C441.851 91.0288 442.27 91.4096 442.232 92.8189C442.194 105.883 442.156 118.947 442.232 132.011C442.232 133.496 441.737 133.763 440.404 133.763C430.653 133.725 420.865 133.687 411.114 133.763C409.705 133.763 409.286 133.382 409.324 131.973C409.439 125.422 409.362 118.871 409.362 112.358Z" fill="#FF4757"/>
<path d="M364.496 107.787C364.496 99.865 364.534 91.9048 364.458 83.9826C364.458 82.4591 364.915 82.1163 366.4 82.1163C376.188 82.1925 385.939 82.1544 395.727 82.1163C397.136 82.1163 397.593 82.4591 397.593 83.9064C397.555 99.9793 397.555 116.014 397.593 132.087C397.593 133.268 397.327 133.725 396.032 133.725C386.053 133.687 376.112 133.648 366.133 133.725C364.686 133.725 364.496 133.191 364.534 131.973C364.496 123.936 364.496 115.862 364.496 107.787Z" fill="#FEFEFE"/>
<path d="M486.68 112.358C486.68 118.909 486.642 125.422 486.718 131.973C486.718 133.42 486.337 133.763 484.89 133.763C475.063 133.686 465.236 133.686 455.41 133.763C454.001 133.763 453.582 133.458 453.582 131.973C453.658 118.909 453.658 105.845 453.582 92.7807C453.582 91.3334 453.963 90.9906 455.372 90.9906C465.198 91.0668 475.025 91.0668 484.851 90.9906C486.261 90.9906 486.68 91.2953 486.68 92.7807C486.642 99.2936 486.68 105.845 486.68 112.358Z" fill="#FEFEFE"/>
<path d="M425.588 85.6585C420.712 85.6585 415.837 85.6204 410.962 85.6965C409.477 85.7346 409.362 85.0871 409.362 83.9064C409.362 82.6496 409.591 82.1163 411.038 82.1163C420.941 82.1925 430.806 82.1925 440.708 82.1163C442.156 82.1163 442.308 82.7638 442.346 83.9445C442.384 85.2014 442.079 85.7346 440.67 85.6965C435.605 85.6204 430.615 85.6585 425.588 85.6585Z" fill="#FEFEFE"/>
<path d="M394.204 52.5986C399.079 52.5986 403.954 52.6367 408.867 52.5605C410.086 52.5605 410.734 52.7129 410.657 54.1602C410.581 55.3409 410.619 56.1027 408.981 56.1027C399.155 56.0265 389.328 56.0265 379.502 56.1027C378.055 56.1027 377.712 55.6456 377.674 54.2745C377.636 52.7129 378.283 52.5605 379.578 52.5605C384.415 52.6367 389.328 52.5986 394.204 52.5986Z" fill="#FEFEFE"/>
<path d="M470.15 85.6585C465.16 85.6585 460.133 85.6204 455.143 85.6965C453.772 85.7346 453.62 85.1252 453.62 84.0207C453.658 82.9162 453.582 82.1163 455.143 82.1163C465.16 82.1925 475.177 82.1925 485.156 82.1163C486.756 82.1163 486.642 82.9543 486.68 84.0207C486.718 85.2014 486.489 85.6965 485.156 85.6965C480.167 85.6204 475.139 85.6585 470.15 85.6585Z" fill="#FDFEFE"/>
<path d="M426.387 56.1026C423.836 56.1026 421.322 56.0265 418.77 56.1407C417.361 56.1788 417.246 55.4552 417.285 54.3887C417.323 53.4365 417.132 52.5605 418.694 52.5986C423.874 52.7129 429.092 52.6748 434.272 52.5986C435.757 52.5605 435.681 53.2842 435.719 54.3125C435.757 55.4552 435.681 56.2169 434.157 56.1407C431.567 55.9884 428.977 56.1026 426.387 56.1026Z" fill="#FEFEFE"/>
<path d="M222.849 79.9072C222.773 80.6309 222.392 81.0879 221.668 81.0879C220.944 81.0879 220.526 80.6309 220.526 79.8691C220.564 79.1836 220.944 78.8408 221.592 78.8027C222.354 78.7646 222.735 79.1836 222.849 79.9072Z" fill="#0C0807"/>
<path d="M235.113 81.5068C235.037 81.583 234.999 81.6973 234.961 81.8115C234.313 82.0781 233.628 82.3447 233.056 81.6592C232.752 81.2783 232.675 80.8593 232.942 80.4404C233.209 79.9833 233.628 79.6405 234.199 79.7548C235.189 79.9072 235.151 80.7451 235.113 81.5068Z" fill="#1A1312"/>
<path d="M68.7476 75.2987C67.5288 75.5653 66.8432 75.1844 66.6528 74.118C66.5385 73.5848 66.6528 72.9754 67.186 72.823C67.9097 72.6707 67.5669 73.4324 67.7573 73.7371C68.062 74.2703 68.3667 74.7274 68.7476 75.2987Z" fill="#EEF2F6"/>
<path d="M68.7475 72.4802C69.5473 73.0515 69.8901 73.5467 69.5473 74.4227C68.5951 74.0799 68.4047 73.4705 68.7475 72.4802Z" fill="#E2E9F1"/>
<path d="M416.751 129.002C418.046 128.164 419.417 128.316 420.751 128.392C422.046 128.469 422.426 127.973 422.312 126.755C422.236 125.764 422.312 124.736 422.274 123.708C422.274 122.298 422.617 121.003 420.484 120.28C418.046 119.442 418.046 115.785 420.179 114.11C420.56 113.805 421.055 113.576 421.474 113.31C421.855 113.081 422.312 112.853 422.16 112.319C422.007 111.862 421.512 112.015 421.169 111.939C418.427 111.329 416.294 109.958 414.885 107.444C414.314 106.416 414.276 105.845 415.761 105.883C420.332 105.921 424.902 105.883 429.473 105.921C429.739 105.921 430.006 105.845 430.234 105.959C430.806 106.226 431.072 107.635 431.986 106.226C432.9 104.892 433.548 103.636 432.786 101.998C431.529 99.3698 428.673 98.0748 425.778 98.8366C423.531 99.446 421.665 100.741 419.875 102.226C419.417 102.607 419.075 103.217 418.313 103.293C418.313 103.064 418.199 102.798 418.275 102.721C420.446 100.322 422.998 98.4938 426.235 97.8844C429.396 97.3131 432.367 98.9128 433.7 101.845C434.576 103.674 433.853 105.197 432.748 106.568C431.072 108.701 428.749 110.034 426.502 111.482C425.397 112.205 423.607 112.472 423.302 113.653C422.845 115.366 423.112 117.309 423.112 119.137C423.112 120.165 423.912 119.975 424.483 119.937C426.235 119.785 427.606 120.28 428.254 122.07C428.901 123.898 428.139 125.269 426.768 126.412C426.159 126.945 425.55 127.516 424.826 128.164C426.159 128.583 427.53 128.011 428.635 128.964C424.674 129.002 420.712 129.002 416.751 129.002Z" fill="#FEFEFE"/>
<path d="M429.701 106.721C428.216 109.615 426.007 110.948 423.226 111.177C420.408 111.405 418.046 110.263 416.294 107.978C416.066 107.673 415.761 107.368 415.99 106.987C416.218 106.606 416.675 106.759 417.018 106.759C421.131 106.721 425.245 106.721 429.701 106.721Z" fill="#E74F4F"/>
<path d="M423.112 128.469C423.112 125.993 423.112 123.898 423.112 121.765C423.112 121.308 423.074 120.775 423.721 120.813C424.788 120.813 425.892 120.47 426.806 121.384C427.911 122.489 427.949 124.088 426.768 125.269C425.702 126.298 424.521 127.25 423.112 128.469Z" fill="#E74F4F"/>
<path d="M422.274 114.186C422.274 115.747 422.274 117.195 422.274 118.68C422.274 119.099 422.35 119.632 421.855 119.861C421.322 120.089 420.865 119.747 420.484 119.404C418.998 118.071 419.265 114.719 422.274 114.186Z" fill="#E74F4F"/>
</svg>
