<svg width="135" height="24" viewBox="0 0 135 24" fill="none" xmlns="http://www.w3.org/2000/svg">
<path d="M29.52 4H32.5L34.78 18H32.58L32.18 15.22V15.26H29.68L29.28 18H27.24L29.52 4ZM31.92 13.36L30.94 6.44H30.9L29.94 13.36H31.92ZM35.8473 4H38.6073L40.7473 12.38H40.7873V4H42.7473V18H40.4873L37.8473 7.78H37.8073V18H35.8473V4ZM44.9025 18.08C44.5025 18.08 44.1625 18.0533 43.8825 18V16C44.0958 16.0533 44.3358 16.08 44.6025 16.08C45.0425 16.08 45.3692 15.9733 45.5825 15.76C45.7958 15.5333 45.9025 15.1933 45.9025 14.74V4H48.1025V14.68C48.1025 15.8267 47.8358 16.68 47.3025 17.24C46.7825 17.8 45.9825 18.08 44.9025 18.08ZM52.8555 18.2C51.7755 18.2 50.9488 17.8933 50.3755 17.28C49.8021 16.6667 49.5155 15.8 49.5155 14.68V7.32C49.5155 6.2 49.8021 5.33333 50.3755 4.72C50.9488 4.10667 51.7755 3.8 52.8555 3.8C53.9355 3.8 54.7621 4.10667 55.3355 4.72C55.9088 5.33333 56.1955 6.2 56.1955 7.32V14.68C56.1955 15.8 55.9088 16.6667 55.3355 17.28C54.7621 17.8933 53.9355 18.2 52.8555 18.2ZM52.8555 16.2C53.6155 16.2 53.9955 15.74 53.9955 14.82V7.18C53.9955 6.26 53.6155 5.8 52.8555 5.8C52.0955 5.8 51.7155 6.26 51.7155 7.18V14.82C51.7155 15.74 52.0955 16.2 52.8555 16.2ZM60.5433 18.2C59.4766 18.2 58.6699 17.9 58.1233 17.3C57.5766 16.6867 57.3033 15.8133 57.3033 14.68V13.88H59.3833V14.84C59.3833 15.7467 59.7633 16.2 60.5233 16.2C60.8966 16.2 61.1766 16.0933 61.3633 15.88C61.5633 15.6533 61.6633 15.2933 61.6633 14.8C61.6633 14.2133 61.5299 13.7 61.2633 13.26C60.9966 12.8067 60.5033 12.2667 59.7833 11.64C58.8766 10.84 58.2433 10.12 57.8833 9.48C57.5233 8.82667 57.3433 8.09333 57.3433 7.28C57.3433 6.17333 57.6233 5.32 58.1833 4.72C58.7433 4.10667 59.5566 3.8 60.6233 3.8C61.6766 3.8 62.4699 4.10667 63.0033 4.72C63.5499 5.32 63.8233 6.18667 63.8233 7.32V7.9H61.7433V7.18C61.7433 6.7 61.6499 6.35333 61.4633 6.14C61.2766 5.91333 61.0033 5.8 60.6433 5.8C59.9099 5.8 59.5433 6.24667 59.5433 7.14C59.5433 7.64667 59.6766 8.12 59.9433 8.56C60.2233 9 60.7233 9.53333 61.4433 10.16C62.3633 10.96 62.9966 11.6867 63.3433 12.34C63.6899 12.9933 63.8633 13.76 63.8633 14.64C63.8633 15.7867 63.5766 16.6667 63.0033 17.28C62.4433 17.8933 61.6233 18.2 60.5433 18.2ZM68.3278 4H71.6878C72.7811 4 73.6011 4.29333 74.1478 4.88C74.6945 5.46667 74.9678 6.32667 74.9678 7.46V14.54C74.9678 15.6733 74.6945 16.5333 74.1478 17.12C73.6011 17.7067 72.7811 18 71.6878 18H68.3278V4ZM71.6478 16C72.0078 16 72.2811 15.8933 72.4678 15.68C72.6678 15.4667 72.7678 15.12 72.7678 14.64V7.36C72.7678 6.88 72.6678 6.53333 72.4678 6.32C72.2811 6.10667 72.0078 6 71.6478 6H70.5278V16H71.6478ZM78.1138 4H81.0938L83.3738 18H81.1738L80.7738 15.22V15.26H78.2738L77.8738 18H75.8338L78.1138 4ZM80.5138 13.36L79.5338 6.44H79.4938L78.5337 13.36H80.5138ZM90.7642 18.2C89.6976 18.2 88.8842 17.9 88.3242 17.3C87.7642 16.6867 87.4842 15.8133 87.4842 14.68V7.32C87.4842 6.18667 87.7642 5.32 88.3242 4.72C88.8842 4.10667 89.6976 3.8 90.7642 3.8C91.8309 3.8 92.6442 4.10667 93.2042 4.72C93.7642 5.32 94.0442 6.18667 94.0442 7.32V8.52H91.9642V7.18C91.9642 6.26 91.5842 5.8 90.8242 5.8C90.0642 5.8 89.6842 6.26 89.6842 7.18V14.84C89.6842 15.7467 90.0642 16.2 90.8242 16.2C91.5842 16.2 91.9642 15.7467 91.9642 14.84V12.1H90.8642V10.1H94.0442V14.68C94.0442 15.8133 93.7642 16.6867 93.2042 17.3C92.6442 17.9 91.8309 18.2 90.7642 18.2ZM98.6567 18.2C97.5901 18.2 96.7767 17.9 96.2167 17.3C95.6567 16.6867 95.3767 15.8133 95.3767 14.68V4H97.5767V14.84C97.5767 15.32 97.6701 15.6667 97.8567 15.88C98.0567 16.0933 98.3367 16.2 98.6967 16.2C99.0567 16.2 99.3301 16.0933 99.5167 15.88C99.7167 15.6667 99.8167 15.32 99.8167 14.84V4H101.937V14.68C101.937 15.8133 101.657 16.6867 101.097 17.3C100.537 17.9 99.7234 18.2 98.6567 18.2ZM105.165 4H108.145L110.425 18H108.225L107.825 15.22V15.26H105.325L104.925 18H102.885L105.165 4ZM107.565 13.36L106.585 6.44H106.545L105.585 13.36H107.565ZM111.492 4H114.752C115.885 4 116.712 4.26667 117.232 4.8C117.752 5.32 118.012 6.12667 118.012 7.22V8.08C118.012 9.53333 117.532 10.4533 116.572 10.84V10.88C117.105 11.04 117.479 11.3667 117.692 11.86C117.919 12.3533 118.032 13.0133 118.032 13.84V16.3C118.032 16.7 118.045 17.0267 118.072 17.28C118.099 17.52 118.165 17.76 118.272 18H116.032C115.952 17.7733 115.899 17.56 115.872 17.36C115.845 17.16 115.832 16.8 115.832 16.28V13.72C115.832 13.08 115.725 12.6333 115.512 12.38C115.312 12.1267 114.959 12 114.452 12H113.692V18H111.492V4ZM114.492 10C114.932 10 115.259 9.88667 115.472 9.66C115.699 9.43333 115.812 9.05333 115.812 8.52V7.44C115.812 6.93333 115.719 6.56667 115.532 6.34C115.359 6.11333 115.079 6 114.692 6H113.692V10H114.492ZM119.558 4H122.918C124.012 4 124.832 4.29333 125.378 4.88C125.925 5.46667 126.198 6.32667 126.198 7.46V14.54C126.198 15.6733 125.925 16.5333 125.378 17.12C124.832 17.7067 124.012 18 122.918 18H119.558V4ZM122.878 16C123.238 16 123.512 15.8933 123.698 15.68C123.898 15.4667 123.998 15.12 123.998 14.64V7.36C123.998 6.88 123.898 6.53333 123.698 6.32C123.512 6.10667 123.238 6 122.878 6H121.758V16H122.878ZM129.344 4H132.324L134.604 18H132.404L132.004 15.22V15.26H129.504L129.104 18H127.064L129.344 4ZM131.744 13.36L130.764 6.44H130.724L129.764 13.36H131.744Z" fill="white"/>
<path d="M2.51325 17.918C2.62541 18.0273 2.80632 18.0273 2.9221 17.918L7.92597 13.0622L12.5427 17.5933C12.6549 17.7027 12.8394 17.7027 12.9515 17.5933L22.9159 7.87822C23.028 7.76883 23.028 7.58885 22.9159 7.47946L21.4831 6.08201C21.4287 6.02947 21.3552 6 21.2787 6C21.2021 6 21.1286 6.02947 21.0742 6.08201L12.7526 14.195L8.14305 9.67091C8.08865 9.61837 8.01519 9.58889 7.93863 9.58889C7.86207 9.58889 7.78861 9.61837 7.73421 9.67091L1.08409 16.1182C1.03022 16.1713 1 16.2429 1 16.3176C1 16.3923 1.03022 16.4639 1.08409 16.517L2.51325 17.918Z" fill="white"/>
</svg>
