<svg width="283" height="192" viewBox="0 0 283 192" fill="none" xmlns="http://www.w3.org/2000/svg">
<path d="M39.12 75.6H14.8L10.32 88H2.64L22.8 32.56H31.2L51.28 88H43.6L39.12 75.6ZM37.04 69.68L26.96 41.52L16.88 69.68H37.04ZM73.0262 43.36C78.3596 43.36 82.6796 44.9867 85.9863 48.24C89.2929 51.44 90.9462 56.08 90.9462 62.16V88H83.7462V63.2C83.7462 58.8267 82.6529 55.4933 80.4662 53.2C78.2796 50.8533 75.2929 49.68 71.5062 49.68C67.6663 49.68 64.5996 50.88 62.3062 53.28C60.0662 55.68 58.9462 59.1733 58.9462 63.76V88H51.6662V44.16H58.9462V50.4C60.3862 48.16 62.3329 46.4267 64.7862 45.2C67.2929 43.9733 70.0396 43.36 73.0262 43.36ZM98.3581 37.04C96.9715 37.04 95.7981 36.56 94.8381 35.6C93.9315 34.64 93.4781 33.4667 93.4781 32.08C93.4781 30.6933 93.9315 29.52 94.8381 28.56C95.7981 27.6 96.9715 27.12 98.3581 27.12C99.7448 27.12 100.891 27.6 101.798 28.56C102.758 29.52 103.238 30.6933 103.238 32.08C103.238 33.4667 102.758 34.64 101.798 35.6C100.891 36.56 99.7448 37.04 98.3581 37.04ZM101.958 97.52C101.958 101.413 100.971 104.267 98.9981 106.08C97.0248 107.893 94.1448 108.8 90.3581 108.8H86.1181V102.64H89.1581C91.1848 102.64 92.5981 102.24 93.3981 101.44C94.2515 100.64 94.6781 99.28 94.6781 97.36V44.16H101.958V97.52ZM125.002 88.72C120.895 88.72 117.162 87.7867 113.802 85.92C110.495 84.0533 107.882 81.4133 105.962 78C104.095 74.5333 103.162 70.5333 103.162 66C103.162 61.52 104.122 57.5733 106.042 54.16C108.015 50.6933 110.682 48.0533 114.042 46.24C117.402 44.3733 121.162 43.44 125.322 43.44C129.482 43.44 133.242 44.3733 136.602 46.24C139.962 48.0533 142.602 50.6667 144.522 54.08C146.495 57.4933 147.482 61.4667 147.482 66C147.482 70.5333 146.469 74.5333 144.442 78C142.469 81.4133 139.775 84.0533 136.362 85.92C132.949 87.7867 129.162 88.72 125.002 88.72ZM125.002 82.32C127.615 82.32 130.069 81.7067 132.362 80.48C134.655 79.2533 136.495 77.4133 137.882 74.96C139.322 72.5067 140.042 69.52 140.042 66C140.042 62.48 139.349 59.4933 137.962 57.04C136.575 54.5867 134.762 52.7733 132.522 51.6C130.282 50.3733 127.855 49.76 125.242 49.76C122.575 49.76 120.122 50.3733 117.882 51.6C115.695 52.7733 113.935 54.5867 112.602 57.04C111.269 59.4933 110.602 62.48 110.602 66C110.602 69.5733 111.242 72.5867 112.522 75.04C113.855 77.4933 115.615 79.3333 117.802 80.56C119.989 81.7333 122.389 82.32 125.002 82.32ZM164.174 88.72C160.814 88.72 157.8 88.16 155.134 87.04C152.467 85.8667 150.36 84.2667 148.814 82.24C147.267 80.16 146.414 77.7867 146.254 75.12H153.774C153.987 77.3067 155 79.0933 156.814 80.48C158.68 81.8667 161.107 82.56 164.094 82.56C166.867 82.56 169.054 81.9467 170.654 80.72C172.254 79.4933 173.054 77.9467 173.054 76.08C173.054 74.16 172.2 72.7467 170.494 71.84C168.787 70.88 166.147 69.9467 162.574 69.04C159.32 68.1867 156.654 67.3333 154.574 66.48C152.547 65.5733 150.787 64.2667 149.294 62.56C147.854 60.8 147.134 58.5067 147.134 55.68C147.134 53.44 147.8 51.3867 149.134 49.52C150.467 47.6533 152.36 46.1867 154.814 45.12C157.267 44 160.067 43.44 163.214 43.44C168.067 43.44 171.987 44.6667 174.974 47.12C177.96 49.5733 179.56 52.9333 179.774 57.2H172.494C172.334 54.9067 171.4 53.0667 169.694 51.68C168.04 50.2933 165.8 49.6 162.974 49.6C160.36 49.6 158.28 50.16 156.734 51.28C155.187 52.4 154.414 53.8667 154.414 55.68C154.414 57.12 154.867 58.32 155.774 59.28C156.734 60.1867 157.907 60.9333 159.294 61.52C160.734 62.0533 162.707 62.6667 165.214 63.36C168.36 64.2133 170.92 65.0667 172.894 65.92C174.867 66.72 176.547 67.9467 177.934 69.6C179.374 71.2533 180.12 73.4133 180.174 76.08C180.174 78.48 179.507 80.64 178.174 82.56C176.84 84.48 174.947 86 172.494 87.12C170.094 88.1867 167.32 88.72 164.174 88.72ZM192.259 65.92C192.259 61.44 193.165 57.52 194.979 54.16C196.792 50.7467 199.272 48.1067 202.419 46.24C205.619 44.3733 209.192 43.44 213.139 43.44C216.552 43.44 219.725 44.24 222.659 45.84C225.592 47.3867 227.832 49.44 229.379 52V28.8H236.739V88H229.379V79.76C227.939 82.3733 225.805 84.5333 222.979 86.24C220.152 87.8933 216.845 88.72 213.059 88.72C209.165 88.72 205.619 87.76 202.419 85.84C199.272 83.92 196.792 81.2267 194.979 77.76C193.165 74.2933 192.259 70.3467 192.259 65.92ZM229.379 66C229.379 62.6933 228.712 59.8133 227.379 57.36C226.045 54.9067 224.232 53.04 221.939 51.76C219.699 50.4267 217.219 49.76 214.499 49.76C211.779 49.76 209.299 50.4 207.059 51.68C204.819 52.96 203.032 54.8267 201.699 57.28C200.365 59.7333 199.699 62.6133 199.699 65.92C199.699 69.28 200.365 72.2133 201.699 74.72C203.032 77.1733 204.819 79.0667 207.059 80.4C209.299 81.68 211.779 82.32 214.499 82.32C217.219 82.32 219.699 81.68 221.939 80.4C224.232 79.0667 226.045 77.1733 227.379 74.72C228.712 72.2133 229.379 69.3067 229.379 66ZM237.921 65.92C237.921 61.44 238.828 57.52 240.641 54.16C242.455 50.7467 244.935 48.1067 248.081 46.24C251.281 44.3733 254.828 43.44 258.721 43.44C262.561 43.44 265.895 44.2667 268.721 45.92C271.548 47.5733 273.655 49.6533 275.041 52.16V44.16H282.401V88H275.041V79.84C273.601 82.4 271.441 84.5333 268.561 86.24C265.735 87.8933 262.428 88.72 258.641 88.72C254.748 88.72 251.228 87.76 248.081 85.84C244.935 83.92 242.455 81.2267 240.641 77.76C238.828 74.2933 237.921 70.3467 237.921 65.92ZM275.041 66C275.041 62.6933 274.375 59.8133 273.041 57.36C271.708 54.9067 269.895 53.04 267.601 51.76C265.361 50.4267 262.881 49.76 260.161 49.76C257.441 49.76 254.961 50.4 252.721 51.68C250.481 52.96 248.695 54.8267 247.361 57.28C246.028 59.7333 245.361 62.6133 245.361 65.92C245.361 69.28 246.028 72.2133 247.361 74.72C248.695 77.1733 250.481 79.0667 252.721 80.4C254.961 81.68 257.441 82.32 260.161 82.32C262.881 82.32 265.361 81.68 267.601 80.4C269.895 79.0667 271.708 77.1733 273.041 74.72C274.375 72.2133 275.041 69.3067 275.041 66Z" fill="white"/>
<path d="M48.4 120.4C46.8533 117.147 44.6133 114.64 41.68 112.88C38.7467 111.067 35.3333 110.16 31.44 110.16C27.5467 110.16 24.0267 111.067 20.88 112.88C17.7867 114.64 15.3333 117.2 13.52 120.56C11.76 123.867 10.88 127.707 10.88 132.08C10.88 136.453 11.76 140.293 13.52 143.6C15.3333 146.907 17.7867 149.467 20.88 151.28C24.0267 153.04 27.5467 153.92 31.44 153.92C36.88 153.92 41.36 152.293 44.88 149.04C48.4 145.787 50.4533 141.387 51.04 135.84H28.8V129.92H58.8V135.52C58.3733 140.107 56.9333 144.32 54.48 148.16C52.0267 151.947 48.8 154.96 44.8 157.2C40.8 159.387 36.3467 160.48 31.44 160.48C26.2667 160.48 21.5467 159.28 17.28 156.88C13.0133 154.427 9.62667 151.04 7.12 146.72C4.66667 142.4 3.44 137.52 3.44 132.08C3.44 126.64 4.66667 121.76 7.12 117.44C9.62667 113.067 13.0133 109.68 17.28 107.28C21.5467 104.827 26.2667 103.6 31.44 103.6C37.36 103.6 42.5867 105.067 47.12 108C51.7067 110.933 55.04 115.067 57.12 120.4H48.4ZM98.9056 116.16V160H91.6256V153.52C90.239 155.76 88.2923 157.52 85.7856 158.8C83.3323 160.027 80.6123 160.64 77.6256 160.64C74.2123 160.64 71.1456 159.947 68.4256 158.56C65.7056 157.12 63.5456 154.987 61.9456 152.16C60.399 149.333 59.6256 145.893 59.6256 141.84V116.16H66.8256V140.88C66.8256 145.2 67.919 148.533 70.1056 150.88C72.2923 153.173 75.279 154.32 79.0656 154.32C82.959 154.32 86.0256 153.12 88.2656 150.72C90.5056 148.32 91.6256 144.827 91.6256 140.24V116.16H98.9056ZM100.077 137.92C100.077 133.44 100.984 129.52 102.797 126.16C104.611 122.747 107.091 120.107 110.237 118.24C113.437 116.373 116.984 115.44 120.877 115.44C124.717 115.44 128.051 116.267 130.877 117.92C133.704 119.573 135.811 121.653 137.197 124.16V116.16H144.557V160H137.197V151.84C135.757 154.4 133.597 156.533 130.717 158.24C127.891 159.893 124.584 160.72 120.797 160.72C116.904 160.72 113.384 159.76 110.237 157.84C107.091 155.92 104.611 153.227 102.797 149.76C100.984 146.293 100.077 142.347 100.077 137.92ZM137.197 138C137.197 134.693 136.531 131.813 135.197 129.36C133.864 126.907 132.051 125.04 129.757 123.76C127.517 122.427 125.037 121.76 122.317 121.76C119.597 121.76 117.117 122.4 114.877 123.68C112.637 124.96 110.851 126.827 109.517 129.28C108.184 131.733 107.517 134.613 107.517 137.92C107.517 141.28 108.184 144.213 109.517 146.72C110.851 149.173 112.637 151.067 114.877 152.4C117.117 153.68 119.597 154.32 122.317 154.32C125.037 154.32 127.517 153.68 129.757 152.4C132.051 151.067 133.864 149.173 135.197 146.72C136.531 144.213 137.197 141.307 137.197 138ZM155.74 123.28C157.02 120.773 158.833 118.827 161.18 117.44C163.58 116.053 166.487 115.36 169.9 115.36V122.88H167.98C159.82 122.88 155.74 127.307 155.74 136.16V160H148.46V116.16H155.74V123.28ZM167.184 137.92C167.184 133.44 168.09 129.52 169.904 126.16C171.717 122.747 174.197 120.107 177.344 118.24C180.544 116.373 184.117 115.44 188.064 115.44C191.477 115.44 194.65 116.24 197.584 117.84C200.517 119.387 202.757 121.44 204.304 124V100.8H211.664V160H204.304V151.76C202.864 154.373 200.73 156.533 197.904 158.24C195.077 159.893 191.77 160.72 187.984 160.72C184.09 160.72 180.544 159.76 177.344 157.84C174.197 155.92 171.717 153.227 169.904 149.76C168.09 146.293 167.184 142.347 167.184 137.92ZM204.304 138C204.304 134.693 203.637 131.813 202.304 129.36C200.97 126.907 199.157 125.04 196.864 123.76C194.624 122.427 192.144 121.76 189.424 121.76C186.704 121.76 184.224 122.4 181.984 123.68C179.744 124.96 177.957 126.827 176.624 129.28C175.29 131.733 174.624 134.613 174.624 137.92C174.624 141.28 175.29 144.213 176.624 146.72C177.957 149.173 179.744 151.067 181.984 152.4C184.224 153.68 186.704 154.32 189.424 154.32C192.144 154.32 194.624 153.68 196.864 152.4C199.157 151.067 200.97 149.173 202.304 146.72C203.637 144.213 204.304 141.307 204.304 138ZM212.846 137.92C212.846 133.44 213.753 129.52 215.566 126.16C217.38 122.747 219.86 120.107 223.006 118.24C226.206 116.373 229.753 115.44 233.646 115.44C237.486 115.44 240.82 116.267 243.646 117.92C246.473 119.573 248.58 121.653 249.966 124.16V116.16H257.326V160H249.966V151.84C248.526 154.4 246.366 156.533 243.486 158.24C240.66 159.893 237.353 160.72 233.566 160.72C229.673 160.72 226.153 159.76 223.006 157.84C219.86 155.92 217.38 153.227 215.566 149.76C213.753 146.293 212.846 142.347 212.846 137.92ZM249.966 138C249.966 134.693 249.3 131.813 247.966 129.36C246.633 126.907 244.82 125.04 242.526 123.76C240.286 122.427 237.806 121.76 235.086 121.76C232.366 121.76 229.886 122.4 227.646 123.68C225.406 124.96 223.62 126.827 222.286 129.28C220.953 131.733 220.286 134.613 220.286 137.92C220.286 141.28 220.953 144.213 222.286 146.72C223.62 149.173 225.406 151.067 227.646 152.4C229.886 153.68 232.366 154.32 235.086 154.32C237.806 154.32 240.286 153.68 242.526 152.4C244.82 151.067 246.633 149.173 247.966 146.72C249.3 144.213 249.966 141.307 249.966 138Z" fill="white"/>
</svg>
